<?xml version="1.0" encoding="UTF-8" standalone="no"?>
<!DOCTYPE svg PUBLIC "-//W3C//DTD SVG 1.1//EN"
 "http://www.w3.org/Graphics/SVG/1.1/DTD/svg11.dtd">
<!-- Generated by graphviz version 2.38.0 (20140413.2041)
 -->
<!-- Title: SHARED Schema Pages: 1 -->
<svg width="953pt" height="718pt"
 viewBox="0.00 0.00 952.73 717.57" xmlns="http://www.w3.org/2000/svg" xmlns:xlink="http://www.w3.org/1999/xlink">
<g id="graph0" class="graph" transform="scale(1 1) rotate(0) translate(4 713.575)">
<title>SHARED Schema</title>
<polygon fill="white" stroke="none" points="-4,4 -4,-713.575 948.729,-713.575 948.729,4 -4,4"/>
<!-- Reference -->
<g id="node1" class="node"><title>Reference</title>
<g id="a_node1"><a xlink:href="/#reference" xlink:title="A reference to a publication" target="_parent">
<ellipse fill="none" stroke="black" cx="194.586" cy="-691.575" rx="46.2923" ry="18"/>
<text text-anchor="middle" x="194.586" y="-687.875" font-family="Times,serif" font-size="14.00">Reference</text>
</a>
</g>
</g>
<!-- ClinicalData -->
<g id="node2" class="node"><title>ClinicalData</title>
<g id="a_node2"><a xlink:href="/#clinicaldata" xlink:title="Diagnostic information about a participant" target="_parent">
<ellipse fill="none" stroke="black" cx="383.972" cy="-398.575" rx="55.4913" ry="18"/>
<text text-anchor="middle" x="383.972" y="-394.875" font-family="Times,serif" font-size="14.00">ClinicalData</text>
</a>
</g>
</g>
<!-- Person -->
<g id="node3" class="node"><title>Person</title>
<g id="a_node3"><a xlink:href="/#person" xlink:title="A study participant" target="_parent">
<ellipse fill="none" stroke="black" cx="194.586" cy="-290.575" rx="34.394" ry="18"/>
<text text-anchor="middle" x="194.586" y="-286.875" font-family="Times,serif" font-size="14.00">Person</text>
</a>
</g>
</g>
<!-- ClinicalData&#45;&gt;Person -->
<g id="edge1" class="edge"><title>ClinicalData&#45;&gt;Person</title>
<path fill="none" stroke="black" d="M331.504,-392.905C313.558,-389.032 294.077,-382.521 278.682,-371.575 255.173,-354.861 263.754,-337.271 242.682,-317.575 238.822,-313.967 234.394,-310.644 229.832,-307.655"/>
<polygon fill="black" stroke="black" points="231.378,-304.5 221.007,-302.33 227.761,-310.493 231.378,-304.5"/>
</g>
<!-- DataBatch -->
<g id="node4" class="node"><title>DataBatch</title>
<g id="a_node4"><a xlink:href="/#databatch" xlink:title="A study, trial, or other batch of data from a collaborator" target="_parent">
<ellipse fill="none" stroke="black" cx="194.586" cy="-344.575" rx="48.1917" ry="18"/>
<text text-anchor="middle" x="194.586" y="-340.875" font-family="Times,serif" font-size="14.00">DataBatch</text>
</a>
</g>
</g>
<!-- ClinicalData&#45;&gt;DataBatch -->
<g id="edge2" class="edge"><title>ClinicalData&#45;&gt;DataBatch</title>
<path fill="none" stroke="black" d="M339.172,-387.866C320.465,-383.129 298.432,-377.334 278.682,-371.575 266.272,-367.956 252.916,-363.754 240.619,-359.759"/>
<polygon fill="black" stroke="black" points="241.616,-356.402 231.023,-356.614 239.436,-363.054 241.616,-356.402"/>
</g>
<!-- Collaborator -->
<g id="node24" class="node"><title>Collaborator</title>
<g id="a_node24"><a xlink:href="/#collaborator" xlink:title="A collaborating site (provides participant data)" target="_parent">
<ellipse fill="none" stroke="black" cx="55.2451" cy="-344.575" rx="55.4913" ry="18"/>
<text text-anchor="middle" x="55.2451" y="-340.875" font-family="Times,serif" font-size="14.00">Collaborator</text>
</a>
</g>
</g>
<!-- DataBatch&#45;&gt;Collaborator -->
<g id="edge36" class="edge"><title>DataBatch&#45;&gt;Collaborator</title>
<path fill="none" stroke="black" d="M146.321,-344.575C138.067,-344.575 129.355,-344.575 120.731,-344.575"/>
<polygon fill="black" stroke="black" points="120.68,-341.075 110.68,-344.575 120.68,-348.075 120.68,-341.075"/>
</g>
<!-- SequenceSubstitution -->
<g id="node5" class="node"><title>SequenceSubstitution</title>
<g id="a_node5"><a xlink:href="/#sequencesubstitution" xlink:title="Indicates that the attached sequence has the attached substitution" target="_parent">
<ellipse fill="none" stroke="black" cx="857.637" cy="-162.575" rx="87.1846" ry="18"/>
<text text-anchor="middle" x="857.637" y="-158.875" font-family="Times,serif" font-size="14.00">SequenceSubstitution</text>
</a>
</g>
</g>
<!-- Substitution -->
<g id="node6" class="node"><title>Substitution</title>
<g id="a_node6"><a xlink:href="/#substitution" xlink:title="A substitution, insertion, or deletion in an RNA sequence" target="_parent">
<ellipse fill="none" stroke="black" cx="629.904" cy="-174.575" rx="53.0913" ry="18"/>
<text text-anchor="middle" x="629.904" y="-170.875" font-family="Times,serif" font-size="14.00">Substitution</text>
</a>
</g>
</g>
<!-- SequenceSubstitution&#45;&gt;Substitution -->
<g id="edge3" class="edge"><title>SequenceSubstitution&#45;&gt;Substitution</title>
<path fill="none" stroke="black" d="M773.223,-167.009C746.621,-168.423 717.672,-169.962 692.87,-171.281"/>
<polygon fill="black" stroke="black" points="692.672,-167.786 682.872,-171.812 693.044,-174.776 692.672,-167.786"/>
</g>
<!-- Sequence -->
<g id="node7" class="node"><title>Sequence</title>
<g id="a_node7"><a xlink:href="/#sequence" xlink:title="Sequences and data needed for rapid alignment" target="_parent">
<ellipse fill="none" stroke="black" cx="629.904" cy="-120.575" rx="44.393" ry="18"/>
<text text-anchor="middle" x="629.904" y="-116.875" font-family="Times,serif" font-size="14.00">Sequence</text>
</a>
</g>
</g>
<!-- SequenceSubstitution&#45;&gt;Sequence -->
<g id="edge4" class="edge"><title>SequenceSubstitution&#45;&gt;Sequence</title>
<path fill="none" stroke="black" d="M792.253,-150.595C756.706,-143.981 713.237,-135.894 680.377,-129.78"/>
<polygon fill="black" stroke="black" points="681.012,-126.338 670.541,-127.95 679.732,-133.22 681.012,-126.338"/>
</g>
<!-- Isolate -->
<g id="node13" class="node"><title>Isolate</title>
<g id="a_node13"><a xlink:href="/#isolate" xlink:title="Virus isolate (from an individual or used in a lab experiment)" target="_parent">
<ellipse fill="none" stroke="black" cx="383.972" cy="-74.5746" rx="34.394" ry="18"/>
<text text-anchor="middle" x="383.972" y="-70.8746" font-family="Times,serif" font-size="14.00">Isolate</text>
</a>
</g>
</g>
<!-- Sequence&#45;&gt;Isolate -->
<g id="edge26" class="edge"><title>Sequence&#45;&gt;Isolate</title>
<path fill="none" stroke="black" d="M589.441,-113.133C544.688,-104.693 472.036,-90.9928 426.461,-82.3984"/>
<polygon fill="black" stroke="black" points="427.084,-78.9544 416.609,-80.5405 425.787,-85.8331 427.084,-78.9544"/>
</g>
<!-- NarcoticsUse -->
<g id="node8" class="node"><title>NarcoticsUse</title>
<g id="a_node8"><a xlink:href="/#narcoticsuse" xlink:title="Detailed data on narcotics use" target="_parent">
<ellipse fill="none" stroke="black" cx="629.904" cy="-290.575" rx="57.6901" ry="18"/>
<text text-anchor="middle" x="629.904" y="-286.875" font-family="Times,serif" font-size="14.00">NarcoticsUse</text>
</a>
</g>
</g>
<!-- BehaviorData -->
<g id="node9" class="node"><title>BehaviorData</title>
<g id="a_node9"><a xlink:href="/#behaviordata" xlink:title="Behavioral information about a participant" target="_parent">
<ellipse fill="none" stroke="black" cx="383.972" cy="-290.575" rx="59.5901" ry="18"/>
<text text-anchor="middle" x="383.972" y="-286.875" font-family="Times,serif" font-size="14.00">BehaviorData</text>
</a>
</g>
</g>
<!-- NarcoticsUse&#45;&gt;BehaviorData -->
<g id="edge5" class="edge"><title>NarcoticsUse&#45;&gt;BehaviorData</title>
<path fill="none" stroke="black" d="M572.02,-290.575C536.89,-290.575 491.572,-290.575 454.342,-290.575"/>
<polygon fill="black" stroke="black" points="454.071,-287.075 444.071,-290.575 454.071,-294.075 454.071,-287.075"/>
</g>
<!-- BehaviorData&#45;&gt;Person -->
<g id="edge29" class="edge"><title>BehaviorData&#45;&gt;Person</title>
<path fill="none" stroke="black" d="M323.939,-290.575C296.502,-290.575 264.447,-290.575 239.236,-290.575"/>
<polygon fill="black" stroke="black" points="239.234,-287.075 229.234,-290.575 239.234,-294.075 239.234,-287.075"/>
</g>
<!-- BehaviorData&#45;&gt;DataBatch -->
<g id="edge30" class="edge"><title>BehaviorData&#45;&gt;DataBatch</title>
<path fill="none" stroke="black" d="M337.118,-301.804C318.866,-306.441 297.714,-312.024 278.682,-317.575 266.272,-321.194 252.916,-325.395 240.619,-329.39"/>
<polygon fill="black" stroke="black" points="239.436,-326.095 231.023,-332.535 241.616,-332.747 239.436,-326.095"/>
</g>
<!-- SusceptibilityResult -->
<g id="node10" class="node"><title>SusceptibilityResult</title>
<g id="a_node10"><a xlink:href="/#susceptibilityresult" xlink:title="Susceptibility test results" target="_parent">
<ellipse fill="none" stroke="black" cx="629.904" cy="-668.575" rx="81.4863" ry="18"/>
<text text-anchor="middle" x="629.904" y="-664.875" font-family="Times,serif" font-size="14.00">SusceptibilityResult</text>
</a>
</g>
</g>
<!-- SusceptibilityResult&#45;&gt;Reference -->
<g id="edge6" class="edge"><title>SusceptibilityResult&#45;&gt;Reference</title>
<path fill="none" stroke="black" d="M573.874,-681.732C548.31,-687.193 517.407,-692.879 489.263,-695.575 396.098,-704.499 372.246,-697.825 278.682,-695.575 269.563,-695.355 259.886,-695.001 250.481,-694.591"/>
<polygon fill="black" stroke="black" points="250.572,-691.092 240.422,-694.129 250.25,-698.084 250.572,-691.092"/>
</g>
<!-- SusceptibilityMethod -->
<g id="node11" class="node"><title>SusceptibilityMethod</title>
<g id="a_node11"><a xlink:href="/#susceptibilitymethod" xlink:title="Susceptibility testing methods" target="_parent">
<ellipse fill="none" stroke="black" cx="383.972" cy="-668.575" rx="87.1846" ry="18"/>
<text text-anchor="middle" x="383.972" y="-664.875" font-family="Times,serif" font-size="14.00">SusceptibilityMethod</text>
</a>
</g>
</g>
<!-- SusceptibilityResult&#45;&gt;SusceptibilityMethod -->
<g id="edge7" class="edge"><title>SusceptibilityResult&#45;&gt;SusceptibilityMethod</title>
<path fill="none" stroke="black" d="M548.355,-668.575C526.934,-668.575 503.579,-668.575 481.403,-668.575"/>
<polygon fill="black" stroke="black" points="481.309,-665.075 471.309,-668.575 481.309,-672.075 481.309,-665.075"/>
</g>
<!-- Medication -->
<g id="node12" class="node"><title>Medication</title>
<g id="a_node12"><a xlink:href="/#medication" xlink:title="Medication" target="_parent">
<ellipse fill="none" stroke="black" cx="383.972" cy="-614.575" rx="51.1914" ry="18"/>
<text text-anchor="middle" x="383.972" y="-610.875" font-family="Times,serif" font-size="14.00">Medication</text>
</a>
</g>
</g>
<!-- SusceptibilityResult&#45;&gt;Medication -->
<g id="edge8" class="edge"><title>SusceptibilityResult&#45;&gt;Medication</title>
<path fill="none" stroke="black" d="M571.713,-655.914C531.166,-646.938 477.165,-634.984 437.666,-626.24"/>
<polygon fill="black" stroke="black" points="438.219,-622.777 427.698,-624.033 436.706,-629.612 438.219,-622.777"/>
</g>
<!-- SusceptibilityResult&#45;&gt;Isolate -->
<g id="edge9" class="edge"><title>SusceptibilityResult&#45;&gt;Isolate</title>
<path fill="none" stroke="black" d="M555.043,-661.56C543.603,-657.307 533.027,-650.958 525.263,-641.575 448.592,-548.916 566.004,-194.175 489.263,-101.575 474.633,-83.9216 450.101,-76.9839 428.504,-74.5472"/>
<polygon fill="black" stroke="black" points="428.774,-71.0576 418.515,-73.7035 428.185,-78.0328 428.774,-71.0576"/>
</g>
<!-- SusceptibilityMethod&#45;&gt;Reference -->
<g id="edge19" class="edge"><title>SusceptibilityMethod&#45;&gt;Reference</title>
<path fill="none" stroke="black" d="M308.643,-677.698C288.641,-680.153 267.408,-682.759 248.808,-685.042"/>
<polygon fill="black" stroke="black" points="248.27,-681.582 238.771,-686.274 249.123,-688.53 248.27,-681.582"/>
</g>
<!-- TestResult -->
<g id="node14" class="node"><title>TestResult</title>
<g id="a_node14"><a xlink:href="/#testresult" xlink:title="The outcome of a test result (e.g. bilirubin, alt, CD4)" target="_parent">
<ellipse fill="none" stroke="black" cx="383.972" cy="-344.575" rx="48.1917" ry="18"/>
<text text-anchor="middle" x="383.972" y="-340.875" font-family="Times,serif" font-size="14.00">TestResult</text>
</a>
</g>
</g>
<!-- TestResult&#45;&gt;Person -->
<g id="edge10" class="edge"><title>TestResult&#45;&gt;Person</title>
<path fill="none" stroke="black" d="M343.199,-334.882C323.682,-329.972 299.869,-323.753 278.682,-317.575 263.917,-313.269 247.813,-308.139 233.747,-303.512"/>
<polygon fill="black" stroke="black" points="234.506,-300.077 223.913,-300.252 232.303,-306.721 234.506,-300.077"/>
</g>
<!-- TestResult&#45;&gt;DataBatch -->
<g id="edge11" class="edge"><title>TestResult&#45;&gt;DataBatch</title>
<path fill="none" stroke="black" d="M335.687,-344.575C310.609,-344.575 279.598,-344.575 253.131,-344.575"/>
<polygon fill="black" stroke="black" points="252.856,-341.075 242.856,-344.575 252.856,-348.075 252.856,-341.075"/>
</g>
<!-- TreatmentOutcome -->
<g id="node15" class="node"><title>TreatmentOutcome</title>
<g id="a_node15"><a xlink:href="/#treatmentoutcome" xlink:title="Outcome of a participant&#39;s treatment" target="_parent">
<ellipse fill="none" stroke="black" cx="629.904" cy="-560.575" rx="79.8859" ry="18"/>
<text text-anchor="middle" x="629.904" y="-556.875" font-family="Times,serif" font-size="14.00">TreatmentOutcome</text>
</a>
</g>
</g>
<!-- TreatmentData -->
<g id="node16" class="node"><title>TreatmentData</title>
<g id="a_node16"><a xlink:href="/#treatmentdata" xlink:title="Information about a participant&#39;s treatment" target="_parent">
<ellipse fill="none" stroke="black" cx="383.972" cy="-560.575" rx="63.8893" ry="18"/>
<text text-anchor="middle" x="383.972" y="-556.875" font-family="Times,serif" font-size="14.00">TreatmentData</text>
</a>
</g>
</g>
<!-- TreatmentOutcome&#45;&gt;TreatmentData -->
<g id="edge12" class="edge"><title>TreatmentOutcome&#45;&gt;TreatmentData</title>
<path fill="none" stroke="black" d="M549.706,-560.575C520.213,-560.575 486.901,-560.575 457.988,-560.575"/>
<polygon fill="black" stroke="black" points="457.958,-557.075 447.958,-560.575 457.958,-564.075 457.958,-557.075"/>
</g>
<!-- TreatmentData&#45;&gt;Person -->
<g id="edge27" class="edge"><title>TreatmentData&#45;&gt;Person</title>
<path fill="none" stroke="black" d="M321.538,-556.637C305.592,-552.698 289.795,-545.714 278.682,-533.575 212.963,-461.79 298.251,-397.475 242.682,-317.575 239.73,-313.331 235.882,-309.667 231.657,-306.528"/>
<polygon fill="black" stroke="black" points="233.514,-303.561 223.203,-301.126 229.745,-309.46 233.514,-303.561"/>
</g>
<!-- TreatmentData&#45;&gt;DataBatch -->
<g id="edge28" class="edge"><title>TreatmentData&#45;&gt;DataBatch</title>
<path fill="none" stroke="black" d="M323.375,-554.732C307.458,-550.763 291.217,-544.24 278.682,-533.575 229.207,-491.482 208.137,-414.27 200.05,-372.756"/>
<polygon fill="black" stroke="black" points="203.466,-371.979 198.223,-362.773 196.58,-373.24 203.466,-371.979"/>
</g>
<!-- DemographicData -->
<g id="node17" class="node"><title>DemographicData</title>
<g id="a_node17"><a xlink:href="/#demographicdata" xlink:title="Demographic information about a participant" target="_parent">
<ellipse fill="none" stroke="black" cx="383.972" cy="-236.575" rx="75.2868" ry="18"/>
<text text-anchor="middle" x="383.972" y="-232.875" font-family="Times,serif" font-size="14.00">DemographicData</text>
</a>
</g>
</g>
<!-- DemographicData&#45;&gt;Person -->
<g id="edge13" class="edge"><title>DemographicData&#45;&gt;Person</title>
<path fill="none" stroke="black" d="M330.815,-249.414C314.104,-253.705 295.559,-258.653 278.682,-263.575 263.917,-267.88 247.813,-273.011 233.747,-277.637"/>
<polygon fill="black" stroke="black" points="232.303,-274.428 223.913,-280.898 234.506,-281.073 232.303,-274.428"/>
</g>
<!-- DemographicData&#45;&gt;DataBatch -->
<g id="edge14" class="edge"><title>DemographicData&#45;&gt;DataBatch</title>
<path fill="none" stroke="black" d="M318.254,-245.554C304.347,-249.537 290.343,-255.284 278.682,-263.575 255.173,-280.289 263.754,-297.878 242.682,-317.575 239.82,-320.25 236.646,-322.768 233.337,-325.109"/>
<polygon fill="black" stroke="black" points="231.422,-322.18 224.933,-330.555 235.228,-328.054 231.422,-322.18"/>
</g>
<!-- DeathAndLastFollowup -->
<g id="node18" class="node"><title>DeathAndLastFollowup</title>
<g id="a_node18"><a xlink:href="/#deathandlastfollowup" xlink:title="Records data about &#160;leaving the study" target="_parent">
<ellipse fill="none" stroke="black" cx="383.972" cy="-182.575" rx="95.5831" ry="18"/>
<text text-anchor="middle" x="383.972" y="-178.875" font-family="Times,serif" font-size="14.00">DeathAndLastFollowup</text>
</a>
</g>
</g>
<!-- DeathAndLastFollowup&#45;&gt;Person -->
<g id="edge15" class="edge"><title>DeathAndLastFollowup&#45;&gt;Person</title>
<path fill="none" stroke="black" d="M314.226,-194.938C301.946,-198.645 289.6,-203.425 278.682,-209.575 253.261,-223.893 230.009,-247.934 214.607,-266.114"/>
<polygon fill="black" stroke="black" points="211.767,-264.057 208.104,-273.999 217.167,-268.511 211.767,-264.057"/>
</g>
<!-- DeathAndLastFollowup&#45;&gt;DataBatch -->
<g id="edge16" class="edge"><title>DeathAndLastFollowup&#45;&gt;DataBatch</title>
<path fill="none" stroke="black" d="M305.75,-193.07C295.799,-197.019 286.405,-202.362 278.682,-209.575 241.702,-244.107 274.732,-278.424 242.682,-317.575 240.465,-320.282 237.901,-322.772 235.137,-325.051"/>
<polygon fill="black" stroke="black" points="233.034,-322.252 226.939,-330.918 237.108,-327.944 233.034,-322.252"/>
</g>
<!-- ViralLoadData -->
<g id="node19" class="node"><title>ViralLoadData</title>
<g id="a_node19"><a xlink:href="/#viralloaddata" xlink:title="ViralLoadData" target="_parent">
<ellipse fill="none" stroke="black" cx="383.972" cy="-128.575" rx="63.8893" ry="18"/>
<text text-anchor="middle" x="383.972" y="-124.875" font-family="Times,serif" font-size="14.00">ViralLoadData</text>
</a>
</g>
</g>
<!-- ViralLoadData&#45;&gt;Person -->
<g id="edge17" class="edge"><title>ViralLoadData&#45;&gt;Person</title>
<path fill="none" stroke="black" d="M324.826,-135.428C308.755,-139.408 292.071,-145.685 278.682,-155.575 241.688,-182.899 217.583,-232.075 205.304,-262.932"/>
<polygon fill="black" stroke="black" points="201.895,-262.045 201.591,-272.635 208.433,-264.546 201.895,-262.045"/>
</g>
<!-- ViralLoadData&#45;&gt;DataBatch -->
<g id="edge18" class="edge"><title>ViralLoadData&#45;&gt;DataBatch</title>
<path fill="none" stroke="black" d="M321.953,-132.902C306.013,-136.847 290.116,-143.737 278.682,-155.575 227.44,-208.624 286.4,-258.172 242.682,-317.575 240.671,-320.307 238.294,-322.805 235.694,-325.081"/>
<polygon fill="black" stroke="black" points="233.318,-322.485 227.368,-331.251 237.486,-328.109 233.318,-322.485"/>
</g>
<!-- ClinicalIsolate -->
<g id="node20" class="node"><title>ClinicalIsolate</title>
<g id="a_node20"><a xlink:href="/#clinicalisolate" xlink:title="Isolate information" target="_parent">
<ellipse fill="none" stroke="black" cx="629.904" cy="-28.5746" rx="61.99" ry="18"/>
<text text-anchor="middle" x="629.904" y="-24.8746" font-family="Times,serif" font-size="14.00">ClinicalIsolate</text>
</a>
</g>
</g>
<!-- ClinicalIsolate&#45;&gt;Person -->
<g id="edge20" class="edge"><title>ClinicalIsolate&#45;&gt;Person</title>
<path fill="none" stroke="black" d="M583.759,-16.4632C511.407,0.051172 368.514,20.3977 278.682,-47.5746 210.469,-99.1888 197.827,-209.92 195.775,-262.171"/>
<polygon fill="black" stroke="black" points="192.27,-262.295 195.481,-272.391 199.267,-262.496 192.27,-262.295"/>
</g>
<!-- ClinicalIsolate&#45;&gt;Isolate -->
<g id="edge21" class="edge"><title>ClinicalIsolate&#45;&gt;Isolate</title>
<path fill="none" stroke="black" d="M577.47,-38.2739C532.532,-46.7481 468.131,-58.8927 426.428,-66.7571"/>
<polygon fill="black" stroke="black" points="425.777,-63.3181 416.598,-68.6107 427.074,-70.1969 425.777,-63.3181"/>
</g>
<!-- EventsAndProceduresData -->
<g id="node21" class="node"><title>EventsAndProceduresData</title>
<g id="a_node21"><a xlink:href="/#eventsandproceduresdata" xlink:title="Significant clinical events and/or procedures (e.g. diagnosed comorbid conditions, surgeries, transplants, etc.)" target="_parent">
<ellipse fill="none" stroke="black" cx="383.972" cy="-506.575" rx="105.082" ry="18"/>
<text text-anchor="middle" x="383.972" y="-502.875" font-family="Times,serif" font-size="14.00">EventsAndProceduresData</text>
</a>
</g>
</g>
<!-- EventsAndProceduresData&#45;&gt;Person -->
<g id="edge22" class="edge"><title>EventsAndProceduresData&#45;&gt;Person</title>
<path fill="none" stroke="black" d="M301.683,-495.328C293.116,-491.429 285.179,-486.301 278.682,-479.575 227.44,-426.525 286.4,-376.978 242.682,-317.575 239.618,-313.412 235.705,-309.793 231.448,-306.677"/>
<polygon fill="black" stroke="black" points="233.288,-303.699 222.97,-301.292 229.535,-309.608 233.288,-303.699"/>
</g>
<!-- EventsAndProceduresData&#45;&gt;DataBatch -->
<g id="edge23" class="edge"><title>EventsAndProceduresData&#45;&gt;DataBatch</title>
<path fill="none" stroke="black" d="M306.896,-494.28C296.836,-490.59 287.106,-485.797 278.682,-479.575 241.688,-452.25 217.583,-403.074 205.304,-372.218"/>
<polygon fill="black" stroke="black" points="208.433,-370.603 201.591,-362.514 201.895,-373.104 208.433,-370.603"/>
</g>
<!-- GeneticData -->
<g id="node22" class="node"><title>GeneticData</title>
<g id="a_node22"><a xlink:href="/#geneticdata" xlink:title="Records relevant genetic data about participants (e.g. IL28B)" target="_parent">
<ellipse fill="none" stroke="black" cx="383.972" cy="-452.575" rx="54.6905" ry="18"/>
<text text-anchor="middle" x="383.972" y="-448.875" font-family="Times,serif" font-size="14.00">GeneticData</text>
</a>
</g>
</g>
<!-- GeneticData&#45;&gt;Person -->
<g id="edge24" class="edge"><title>GeneticData&#45;&gt;Person</title>
<path fill="none" stroke="black" d="M330.294,-449.153C312.013,-445.526 292.625,-438.595 278.682,-425.575 241.702,-391.042 274.732,-356.726 242.682,-317.575 239.407,-313.575 235.375,-310.05 231.059,-306.98"/>
<polygon fill="black" stroke="black" points="232.865,-303.981 222.534,-301.631 229.144,-309.91 232.865,-303.981"/>
</g>
<!-- GeneticData&#45;&gt;DataBatch -->
<g id="edge25" class="edge"><title>GeneticData&#45;&gt;DataBatch</title>
<path fill="none" stroke="black" d="M333.73,-445.301C315.627,-441.246 295.466,-435.029 278.682,-425.575 253.566,-411.427 230.566,-387.79 215.164,-369.691"/>
<polygon fill="black" stroke="black" points="217.717,-367.286 208.642,-361.819 212.327,-371.752 217.717,-367.286"/>
</g>
<!-- CauseOfDeath -->
<g id="node23" class="node"><title>CauseOfDeath</title>
<g id="a_node23"><a xlink:href="/#causeofdeath" xlink:title="Primary cause of death and other underlying conditions" target="_parent">
<ellipse fill="none" stroke="black" cx="629.904" cy="-228.575" rx="62.2891" ry="18"/>
<text text-anchor="middle" x="629.904" y="-224.875" font-family="Times,serif" font-size="14.00">CauseOfDeath</text>
</a>
</g>
</g>
<!-- CauseOfDeath&#45;&gt;DeathAndLastFollowup -->
<g id="edge31" class="edge"><title>CauseOfDeath&#45;&gt;DeathAndLastFollowup</title>
<path fill="none" stroke="black" d="M577.172,-218.819C543.794,-212.525 499.769,-204.223 462.277,-197.153"/>
<polygon fill="black" stroke="black" points="462.87,-193.703 452.395,-195.289 461.573,-200.582 462.87,-193.703"/>
</g>
<!-- LabIsolate -->
<g id="node25" class="node"><title>LabIsolate</title>
<g id="a_node25"><a xlink:href="/#labisolate" xlink:title="Isolates created in the lab" target="_parent">
<ellipse fill="none" stroke="black" cx="857.637" cy="-85.5746" rx="48.1917" ry="18"/>
<text text-anchor="middle" x="857.637" y="-81.8746" font-family="Times,serif" font-size="14.00">LabIsolate</text>
</a>
</g>
</g>
<!-- LabIsolate&#45;&gt;Sequence -->
<g id="edge32" class="edge"><title>LabIsolate&#45;&gt;Sequence</title>
<path fill="none" stroke="black" d="M812.845,-92.3645C775.221,-98.1982 720.957,-106.612 681.487,-112.732"/>
<polygon fill="black" stroke="black" points="680.882,-109.284 671.537,-114.274 681.955,-116.201 680.882,-109.284"/>
</g>
<!-- LabIsolate&#45;&gt;Isolate -->
<g id="edge33" class="edge"><title>LabIsolate&#45;&gt;Isolate</title>
<path fill="none" stroke="black" d="M809.252,-84.4696C717.663,-82.3335 517.558,-77.6668 428.833,-75.5976"/>
<polygon fill="black" stroke="black" points="428.659,-72.0926 418.58,-75.3584 428.496,-79.0907 428.659,-72.0926"/>
</g>
<!-- TreatmentMedicationData -->
<g id="node26" class="node"><title>TreatmentMedicationData</title>
<g id="a_node26"><a xlink:href="/#treatmentmedicationdata" xlink:title="How much and what kind of medications were included in a treatment regimen" target="_parent">
<ellipse fill="none" stroke="black" cx="629.904" cy="-614.575" rx="104.782" ry="18"/>
<text text-anchor="middle" x="629.904" y="-610.875" font-family="Times,serif" font-size="14.00">TreatmentMedicationData</text>
</a>
</g>
</g>
<!-- TreatmentMedicationData&#45;&gt;Medication -->
<g id="edge34" class="edge"><title>TreatmentMedicationData&#45;&gt;Medication</title>
<path fill="none" stroke="black" d="M525.101,-614.575C497.984,-614.575 469.641,-614.575 445.597,-614.575"/>
<polygon fill="black" stroke="black" points="445.572,-611.075 435.572,-614.575 445.572,-618.075 445.572,-611.075"/>
</g>
<!-- TreatmentMedicationData&#45;&gt;TreatmentData -->
<g id="edge35" class="edge"><title>TreatmentMedicationData&#45;&gt;TreatmentData</title>
<path fill="none" stroke="black" d="M564.814,-600.387C527.654,-592.161 481.163,-581.869 444.761,-573.81"/>
<polygon fill="black" stroke="black" points="445.297,-570.344 434.777,-571.6 443.784,-577.179 445.297,-570.344"/>
</g>
</g>
</svg>
