<?xml version="1.0" encoding="UTF-8" standalone="no"?>
<!DOCTYPE svg PUBLIC "-//W3C//DTD SVG 1.1//EN"
 "http://www.w3.org/Graphics/SVG/1.1/DTD/svg11.dtd">
<!-- Generated by graphviz version 2.38.0 (20140413.2041)
 -->
<!-- Title: SHARED Schema Pages: 1 -->
<svg width="743pt" height="860pt"
 viewBox="0.00 0.00 742.54 860.00" xmlns="http://www.w3.org/2000/svg" xmlns:xlink="http://www.w3.org/1999/xlink">
<g id="graph0" class="graph" transform="scale(1 1) rotate(0) translate(4 856)">
<title>SHARED Schema</title>
<polygon fill="white" stroke="none" points="-4,4 -4,-856 738.544,-856 738.544,4 -4,4"/>
<!-- EventsAndProceduresData -->
<g id="node1" class="node"><title>EventsAndProceduresData</title>
<g id="a_node1"><a xlink:href="/#eventsandproceduresdata" xlink:title="Significant clinical events and/or procedures (e.g. diagnosed comorbid conditions, surgeries, transplants, etc.)" target="_parent">
<ellipse fill="none" stroke="black" cx="383.972" cy="-456" rx="105.082" ry="18"/>
<text text-anchor="middle" x="383.972" y="-452.3" font-family="Times,serif" font-size="14.00">EventsAndProceduresData</text>
</a>
</g>
</g>
<!-- DataBatch -->
<g id="node2" class="node"><title>DataBatch</title>
<g id="a_node2"><a xlink:href="/#databatch" xlink:title="A study, trial, or other batch of data from a collaborator" target="_parent">
<ellipse fill="none" stroke="black" cx="194.586" cy="-645" rx="48.1917" ry="18"/>
<text text-anchor="middle" x="194.586" y="-641.3" font-family="Times,serif" font-size="14.00">DataBatch</text>
</a>
</g>
</g>
<!-- EventsAndProceduresData&#45;&gt;DataBatch -->
<g id="edge1" class="edge"><title>EventsAndProceduresData&#45;&gt;DataBatch</title>
<path fill="none" stroke="black" d="M302.655,-467.472C293.815,-471.322 285.546,-476.377 278.682,-483 238.303,-521.956 273.046,-556.819 242.682,-604 238.309,-610.794 232.491,-617.108 226.439,-622.644"/>
<polygon fill="black" stroke="black" points="224.071,-620.064 218.74,-629.219 228.617,-625.387 224.071,-620.064"/>
</g>
<!-- Person -->
<g id="node3" class="node"><title>Person</title>
<g id="a_node3"><a xlink:href="/#person" xlink:title="A study participant" target="_parent">
<ellipse fill="none" stroke="black" cx="194.586" cy="-577" rx="34.394" ry="18"/>
<text text-anchor="middle" x="194.586" y="-573.3" font-family="Times,serif" font-size="14.00">Person</text>
</a>
</g>
</g>
<!-- EventsAndProceduresData&#45;&gt;Person -->
<g id="edge2" class="edge"><title>EventsAndProceduresData&#45;&gt;Person</title>
<path fill="none" stroke="black" d="M310.005,-468.929C299.059,-472.534 288.248,-477.133 278.682,-483 250.449,-500.314 226.439,-530.222 211.597,-551.655"/>
<polygon fill="black" stroke="black" points="208.676,-549.726 205.996,-559.976 214.483,-553.634 208.676,-549.726"/>
</g>
<!-- Collaborator -->
<g id="node6" class="node"><title>Collaborator</title>
<g id="a_node6"><a xlink:href="/#collaborator" xlink:title="A collaborating site (provides participant data)" target="_parent">
<ellipse fill="none" stroke="black" cx="55.2451" cy="-753" rx="55.4913" ry="18"/>
<text text-anchor="middle" x="55.2451" y="-749.3" font-family="Times,serif" font-size="14.00">Collaborator</text>
</a>
</g>
</g>
<!-- DataBatch&#45;&gt;Collaborator -->
<g id="edge12" class="edge"><title>DataBatch&#45;&gt;Collaborator</title>
<path fill="none" stroke="black" d="M173.025,-661.169C149.797,-679.434 111.81,-709.305 85.4981,-729.996"/>
<polygon fill="black" stroke="black" points="83.0962,-727.433 77.3989,-736.365 87.4231,-732.935 83.0962,-727.433"/>
</g>
<!-- NarcoticsUse -->
<g id="node4" class="node"><title>NarcoticsUse</title>
<g id="a_node4"><a xlink:href="/#narcoticsuse" xlink:title="Detailed data on narcotics use" target="_parent">
<ellipse fill="none" stroke="black" cx="629.904" cy="-834" rx="57.6901" ry="18"/>
<text text-anchor="middle" x="629.904" y="-830.3" font-family="Times,serif" font-size="14.00">NarcoticsUse</text>
</a>
</g>
</g>
<!-- BehaviorData -->
<g id="node5" class="node"><title>BehaviorData</title>
<g id="a_node5"><a xlink:href="/#behaviordata" xlink:title="Behavioral information about a participant" target="_parent">
<ellipse fill="none" stroke="black" cx="383.972" cy="-834" rx="59.5901" ry="18"/>
<text text-anchor="middle" x="383.972" y="-830.3" font-family="Times,serif" font-size="14.00">BehaviorData</text>
</a>
</g>
</g>
<!-- NarcoticsUse&#45;&gt;BehaviorData -->
<g id="edge3" class="edge"><title>NarcoticsUse&#45;&gt;BehaviorData</title>
<path fill="none" stroke="black" d="M572.02,-834C536.89,-834 491.572,-834 454.342,-834"/>
<polygon fill="black" stroke="black" points="454.071,-830.5 444.071,-834 454.071,-837.5 454.071,-830.5"/>
</g>
<!-- BehaviorData&#45;&gt;DataBatch -->
<g id="edge38" class="edge"><title>BehaviorData&#45;&gt;DataBatch</title>
<path fill="none" stroke="black" d="M327.027,-828.447C310.113,-824.546 292.406,-817.987 278.682,-807 235.449,-772.389 212.471,-709.273 202.273,-672.881"/>
<polygon fill="black" stroke="black" points="205.58,-671.698 199.62,-662.938 198.817,-673.503 205.58,-671.698"/>
</g>
<!-- BehaviorData&#45;&gt;Person -->
<g id="edge39" class="edge"><title>BehaviorData&#45;&gt;Person</title>
<path fill="none" stroke="black" d="M324.98,-830.66C307.956,-826.878 290.702,-819.83 278.682,-807 220.217,-744.599 285.27,-692.15 242.682,-618 238.258,-610.298 231.841,-603.326 225.16,-597.405"/>
<polygon fill="black" stroke="black" points="227.252,-594.594 217.3,-590.958 222.812,-600.006 227.252,-594.594"/>
</g>
<!-- BehaviorData&#45;&gt;Collaborator -->
<g id="edge37" class="edge"><title>BehaviorData&#45;&gt;Collaborator</title>
<path fill="none" stroke="black" d="M335.283,-823.263C287.429,-812.358 211.67,-794.739 146.49,-778 133.817,-774.745 120.192,-771.066 107.467,-767.551"/>
<polygon fill="black" stroke="black" points="108.062,-764.084 97.4899,-764.778 106.188,-770.828 108.062,-764.084"/>
</g>
<!-- DemographicData -->
<g id="node7" class="node"><title>DemographicData</title>
<g id="a_node7"><a xlink:href="/#demographicdata" xlink:title="Demographic information about a participant" target="_parent">
<ellipse fill="none" stroke="black" cx="383.972" cy="-726" rx="75.2868" ry="18"/>
<text text-anchor="middle" x="383.972" y="-722.3" font-family="Times,serif" font-size="14.00">DemographicData</text>
</a>
</g>
</g>
<!-- DemographicData&#45;&gt;DataBatch -->
<g id="edge5" class="edge"><title>DemographicData&#45;&gt;DataBatch</title>
<path fill="none" stroke="black" d="M325.286,-714.599C309.809,-710.596 293.317,-705.445 278.682,-699 259.728,-690.654 240.226,-678.217 224.882,-667.382"/>
<polygon fill="black" stroke="black" points="226.52,-664.248 216.364,-661.231 222.422,-669.923 226.52,-664.248"/>
</g>
<!-- DemographicData&#45;&gt;Person -->
<g id="edge6" class="edge"><title>DemographicData&#45;&gt;Person</title>
<path fill="none" stroke="black" d="M316.069,-718.112C302.588,-714.059 289.312,-708.008 278.682,-699 248.625,-673.532 266.093,-649.684 242.682,-618 237.31,-610.731 230.442,-603.848 223.622,-597.87"/>
<polygon fill="black" stroke="black" points="225.655,-595.008 215.731,-591.3 221.177,-600.388 225.655,-595.008"/>
</g>
<!-- DemographicData&#45;&gt;Collaborator -->
<g id="edge4" class="edge"><title>DemographicData&#45;&gt;Collaborator</title>
<path fill="none" stroke="black" d="M312.48,-731.825C254.907,-736.583 174.29,-743.245 118.941,-747.819"/>
<polygon fill="black" stroke="black" points="118.589,-744.336 108.911,-748.648 119.165,-751.312 118.589,-744.336"/>
</g>
<!-- TreatmentData -->
<g id="node8" class="node"><title>TreatmentData</title>
<g id="a_node8"><a xlink:href="/#treatmentdata" xlink:title="Information about a participant&#39;s treatment" target="_parent">
<ellipse fill="none" stroke="black" cx="383.972" cy="-780" rx="63.8893" ry="18"/>
<text text-anchor="middle" x="383.972" y="-776.3" font-family="Times,serif" font-size="14.00">TreatmentData</text>
</a>
</g>
</g>
<!-- TreatmentData&#45;&gt;DataBatch -->
<g id="edge8" class="edge"><title>TreatmentData&#45;&gt;DataBatch</title>
<path fill="none" stroke="black" d="M326,-772.375C309.782,-768.376 292.723,-762.283 278.682,-753 247.708,-732.523 223.48,-696.56 209.369,-671.796"/>
<polygon fill="black" stroke="black" points="212.36,-669.972 204.462,-662.909 206.231,-673.355 212.36,-669.972"/>
</g>
<!-- TreatmentData&#45;&gt;Person -->
<g id="edge9" class="edge"><title>TreatmentData&#45;&gt;Person</title>
<path fill="none" stroke="black" d="M322.27,-775.359C306.335,-771.41 290.362,-764.596 278.682,-753 234.613,-709.251 275.537,-670.693 242.682,-618 237.982,-610.463 231.466,-603.55 224.778,-597.634"/>
<polygon fill="black" stroke="black" points="226.886,-594.837 216.946,-591.17 222.431,-600.235 226.886,-594.837"/>
</g>
<!-- TreatmentData&#45;&gt;Collaborator -->
<g id="edge7" class="edge"><title>TreatmentData&#45;&gt;Collaborator</title>
<path fill="none" stroke="black" d="M322.665,-775.016C264.829,-770.237 177.865,-763.05 119.17,-758.2"/>
<polygon fill="black" stroke="black" points="119.17,-754.688 108.916,-757.353 118.593,-761.664 119.17,-754.688"/>
</g>
<!-- Substitution -->
<g id="node9" class="node"><title>Substitution</title>
<g id="a_node9"><a xlink:href="/#substitution" xlink:title="A substitution, insertion, or deletion in an RNA sequence" target="_parent">
<ellipse fill="none" stroke="black" cx="383.972" cy="-18" rx="53.0913" ry="18"/>
<text text-anchor="middle" x="383.972" y="-14.3" font-family="Times,serif" font-size="14.00">Substitution</text>
</a>
</g>
</g>
<!-- TreatmentOutcome -->
<g id="node10" class="node"><title>TreatmentOutcome</title>
<g id="a_node10"><a xlink:href="/#treatmentoutcome" xlink:title="Outcome of a participant&#39;s treatment" target="_parent">
<ellipse fill="none" stroke="black" cx="629.904" cy="-780" rx="79.8859" ry="18"/>
<text text-anchor="middle" x="629.904" y="-776.3" font-family="Times,serif" font-size="14.00">TreatmentOutcome</text>
</a>
</g>
</g>
<!-- TreatmentOutcome&#45;&gt;TreatmentData -->
<g id="edge10" class="edge"><title>TreatmentOutcome&#45;&gt;TreatmentData</title>
<path fill="none" stroke="black" d="M549.706,-780C520.213,-780 486.901,-780 457.988,-780"/>
<polygon fill="black" stroke="black" points="457.958,-776.5 447.958,-780 457.958,-783.5 457.958,-776.5"/>
</g>
<!-- CauseOfDeath -->
<g id="node11" class="node"><title>CauseOfDeath</title>
<g id="a_node11"><a xlink:href="/#causeofdeath" xlink:title="Primary cause of death and other underlying conditions" target="_parent">
<ellipse fill="none" stroke="black" cx="629.904" cy="-444" rx="62.2891" ry="18"/>
<text text-anchor="middle" x="629.904" y="-440.3" font-family="Times,serif" font-size="14.00">CauseOfDeath</text>
</a>
</g>
</g>
<!-- DeathAndLastFollowup -->
<g id="node12" class="node"><title>DeathAndLastFollowup</title>
<g id="a_node12"><a xlink:href="/#deathandlastfollowup" xlink:title="Records data about &#160;leaving the study" target="_parent">
<ellipse fill="none" stroke="black" cx="383.972" cy="-402" rx="95.5831" ry="18"/>
<text text-anchor="middle" x="383.972" y="-398.3" font-family="Times,serif" font-size="14.00">DeathAndLastFollowup</text>
</a>
</g>
</g>
<!-- CauseOfDeath&#45;&gt;DeathAndLastFollowup -->
<g id="edge11" class="edge"><title>CauseOfDeath&#45;&gt;DeathAndLastFollowup</title>
<path fill="none" stroke="black" d="M575.974,-434.887C543.698,-429.329 501.804,-422.116 465.48,-415.862"/>
<polygon fill="black" stroke="black" points="465.843,-412.373 455.394,-414.125 464.655,-419.271 465.843,-412.373"/>
</g>
<!-- DeathAndLastFollowup&#45;&gt;DataBatch -->
<g id="edge23" class="edge"><title>DeathAndLastFollowup&#45;&gt;DataBatch</title>
<path fill="none" stroke="black" d="M304.163,-412.01C294.626,-416.047 285.77,-421.545 278.682,-429 223.967,-486.547 282.734,-535.435 242.682,-604 238.606,-610.977 232.912,-617.366 226.887,-622.919"/>
<polygon fill="black" stroke="black" points="224.519,-620.338 219.175,-629.486 229.058,-625.667 224.519,-620.338"/>
</g>
<!-- DeathAndLastFollowup&#45;&gt;Person -->
<g id="edge24" class="edge"><title>DeathAndLastFollowup&#45;&gt;Person</title>
<path fill="none" stroke="black" d="M308.818,-413.205C298.024,-417.032 287.572,-422.153 278.682,-429 238.694,-459.796 215.017,-515.635 203.726,-549.221"/>
<polygon fill="black" stroke="black" points="200.35,-548.285 200.615,-558.877 207.013,-550.432 200.35,-548.285"/>
</g>
<!-- Isolate -->
<g id="node13" class="node"><title>Isolate</title>
<g id="a_node13"><a xlink:href="/#isolate" xlink:title="Virus isolate (from an individual or used in a lab experiment)" target="_parent">
<ellipse fill="none" stroke="black" cx="194.586" cy="-137" rx="34.394" ry="18"/>
<text text-anchor="middle" x="194.586" y="-133.3" font-family="Times,serif" font-size="14.00">Isolate</text>
</a>
</g>
</g>
<!-- LabIsolate -->
<g id="node14" class="node"><title>LabIsolate</title>
<g id="a_node14"><a xlink:href="/#labisolate" xlink:title="Isolates created in the lab" target="_parent">
<ellipse fill="none" stroke="black" cx="629.904" cy="-106" rx="48.1917" ry="18"/>
<text text-anchor="middle" x="629.904" y="-102.3" font-family="Times,serif" font-size="14.00">LabIsolate</text>
</a>
</g>
</g>
<!-- LabIsolate&#45;&gt;Isolate -->
<g id="edge13" class="edge"><title>LabIsolate&#45;&gt;Isolate</title>
<path fill="none" stroke="black" d="M582.531,-109.318C498.154,-115.354 320.69,-128.05 238.743,-133.912"/>
<polygon fill="black" stroke="black" points="238.492,-130.421 228.767,-134.626 238.992,-137.404 238.492,-130.421"/>
</g>
<!-- Sequence -->
<g id="node15" class="node"><title>Sequence</title>
<g id="a_node15"><a xlink:href="/#sequence" xlink:title="Sequences and data needed for rapid alignment" target="_parent">
<ellipse fill="none" stroke="black" cx="383.972" cy="-72" rx="44.393" ry="18"/>
<text text-anchor="middle" x="383.972" y="-68.3" font-family="Times,serif" font-size="14.00">Sequence</text>
</a>
</g>
</g>
<!-- LabIsolate&#45;&gt;Sequence -->
<g id="edge14" class="edge"><title>LabIsolate&#45;&gt;Sequence</title>
<path fill="none" stroke="black" d="M584.447,-99.8034C542.719,-93.9872 480.323,-85.2903 436.452,-79.1755"/>
<polygon fill="black" stroke="black" points="436.666,-75.6715 426.279,-77.7574 435.7,-82.6045 436.666,-75.6715"/>
</g>
<!-- Sequence&#45;&gt;Isolate -->
<g id="edge36" class="edge"><title>Sequence&#45;&gt;Isolate</title>
<path fill="none" stroke="black" d="M347.022,-82.2554C326.812,-88.2142 301.196,-96.0897 278.682,-104 263.094,-109.477 246.104,-116.104 231.572,-121.978"/>
<polygon fill="black" stroke="black" points="229.89,-118.884 221.952,-125.901 232.533,-125.366 229.89,-118.884"/>
</g>
<!-- SequenceSubstitution -->
<g id="node16" class="node"><title>SequenceSubstitution</title>
<g id="a_node16"><a xlink:href="/#sequencesubstitution" xlink:title="Indicates that the attached sequence has the attached substitution" target="_parent">
<ellipse fill="none" stroke="black" cx="629.904" cy="-29" rx="87.1846" ry="18"/>
<text text-anchor="middle" x="629.904" y="-25.3" font-family="Times,serif" font-size="14.00">SequenceSubstitution</text>
</a>
</g>
</g>
<!-- SequenceSubstitution&#45;&gt;Substitution -->
<g id="edge15" class="edge"><title>SequenceSubstitution&#45;&gt;Substitution</title>
<path fill="none" stroke="black" d="M544.615,-25.199C512.587,-23.7547 476.715,-22.1371 447.1,-20.8016"/>
<polygon fill="black" stroke="black" points="447.05,-17.2959 436.902,-20.3418 446.734,-24.2888 447.05,-17.2959"/>
</g>
<!-- SequenceSubstitution&#45;&gt;Sequence -->
<g id="edge16" class="edge"><title>SequenceSubstitution&#45;&gt;Sequence</title>
<path fill="none" stroke="black" d="M563.214,-40.5798C522.842,-47.6965 471.933,-56.6706 434.87,-63.2041"/>
<polygon fill="black" stroke="black" points="434.044,-59.7957 424.803,-64.9786 435.259,-66.6894 434.044,-59.7957"/>
</g>
<!-- SusceptibilityResult -->
<g id="node17" class="node"><title>SusceptibilityResult</title>
<g id="a_node17"><a xlink:href="/#susceptibilityresult" xlink:title="Susceptibility test results" target="_parent">
<ellipse fill="none" stroke="black" cx="629.904" cy="-259" rx="81.4863" ry="18"/>
<text text-anchor="middle" x="629.904" y="-255.3" font-family="Times,serif" font-size="14.00">SusceptibilityResult</text>
</a>
</g>
</g>
<!-- SusceptibilityResult&#45;&gt;Isolate -->
<g id="edge17" class="edge"><title>SusceptibilityResult&#45;&gt;Isolate</title>
<path fill="none" stroke="black" d="M606.658,-241.588C580.26,-221.922 534.149,-190.631 489.263,-175 404.073,-145.333 297.698,-138.482 239.199,-137.108"/>
<polygon fill="black" stroke="black" points="239.261,-133.608 229.195,-136.916 239.126,-140.607 239.261,-133.608"/>
</g>
<!-- Medication -->
<g id="node18" class="node"><title>Medication</title>
<g id="a_node18"><a xlink:href="/#medication" xlink:title="Medication" target="_parent">
<ellipse fill="none" stroke="black" cx="383.972" cy="-348" rx="51.1914" ry="18"/>
<text text-anchor="middle" x="383.972" y="-344.3" font-family="Times,serif" font-size="14.00">Medication</text>
</a>
</g>
</g>
<!-- SusceptibilityResult&#45;&gt;Medication -->
<g id="edge18" class="edge"><title>SusceptibilityResult&#45;&gt;Medication</title>
<path fill="none" stroke="black" d="M595.95,-275.482C568.04,-288.99 526.706,-307.94 489.263,-321 472.811,-326.738 454.521,-331.876 437.91,-336.09"/>
<polygon fill="black" stroke="black" points="436.68,-332.789 427.816,-338.592 438.364,-339.583 436.68,-332.789"/>
</g>
<!-- SusceptibilityMethod -->
<g id="node19" class="node"><title>SusceptibilityMethod</title>
<g id="a_node19"><a xlink:href="/#susceptibilitymethod" xlink:title="Susceptibility testing methods" target="_parent">
<ellipse fill="none" stroke="black" cx="383.972" cy="-294" rx="87.1846" ry="18"/>
<text text-anchor="middle" x="383.972" y="-290.3" font-family="Times,serif" font-size="14.00">SusceptibilityMethod</text>
</a>
</g>
</g>
<!-- SusceptibilityResult&#45;&gt;SusceptibilityMethod -->
<g id="edge19" class="edge"><title>SusceptibilityResult&#45;&gt;SusceptibilityMethod</title>
<path fill="none" stroke="black" d="M561.279,-268.703C531.89,-272.92 497.21,-277.896 466.417,-282.314"/>
<polygon fill="black" stroke="black" points="465.538,-278.904 456.137,-283.789 466.533,-285.833 465.538,-278.904"/>
</g>
<!-- Reference -->
<g id="node20" class="node"><title>Reference</title>
<g id="a_node20"><a xlink:href="/#reference" xlink:title="A reference to a publication" target="_parent">
<ellipse fill="none" stroke="black" cx="194.586" cy="-271" rx="46.2923" ry="18"/>
<text text-anchor="middle" x="194.586" y="-267.3" font-family="Times,serif" font-size="14.00">Reference</text>
</a>
</g>
</g>
<!-- SusceptibilityResult&#45;&gt;Reference -->
<g id="edge20" class="edge"><title>SusceptibilityResult&#45;&gt;Reference</title>
<path fill="none" stroke="black" d="M548.557,-260.259C477.561,-261.509 371.219,-263.716 278.682,-267 269.566,-267.323 259.89,-267.731 250.486,-268.161"/>
<polygon fill="black" stroke="black" points="250.252,-264.668 240.427,-268.634 250.581,-271.66 250.252,-264.668"/>
</g>
<!-- SusceptibilityMethod&#45;&gt;Reference -->
<g id="edge31" class="edge"><title>SusceptibilityMethod&#45;&gt;Reference</title>
<path fill="none" stroke="black" d="M308.643,-284.877C288.641,-282.422 267.408,-279.815 248.808,-277.533"/>
<polygon fill="black" stroke="black" points="249.123,-274.045 238.771,-276.301 248.27,-280.993 249.123,-274.045"/>
</g>
<!-- TestResult -->
<g id="node21" class="node"><title>TestResult</title>
<g id="a_node21"><a xlink:href="/#testresult" xlink:title="The outcome of a test result (e.g. bilirubin, alt, CD4)" target="_parent">
<ellipse fill="none" stroke="black" cx="383.972" cy="-672" rx="48.1917" ry="18"/>
<text text-anchor="middle" x="383.972" y="-668.3" font-family="Times,serif" font-size="14.00">TestResult</text>
</a>
</g>
</g>
<!-- TestResult&#45;&gt;DataBatch -->
<g id="edge21" class="edge"><title>TestResult&#45;&gt;DataBatch</title>
<path fill="none" stroke="black" d="M338.564,-665.601C311.961,-661.768 277.946,-656.867 249.768,-652.807"/>
<polygon fill="black" stroke="black" points="250.072,-649.315 239.675,-651.353 249.074,-656.243 250.072,-649.315"/>
</g>
<!-- TestResult&#45;&gt;Person -->
<g id="edge22" class="edge"><title>TestResult&#45;&gt;Person</title>
<path fill="none" stroke="black" d="M339.345,-665.09C320.057,-660.945 297.528,-654.563 278.682,-645 272.241,-641.732 243.148,-617.502 221.188,-598.887"/>
<polygon fill="black" stroke="black" points="223.362,-596.141 213.475,-592.331 218.828,-601.475 223.362,-596.141"/>
</g>
<!-- ClinicalIsolate -->
<g id="node22" class="node"><title>ClinicalIsolate</title>
<g id="a_node22"><a xlink:href="/#clinicalisolate" xlink:title="Isolate information" target="_parent">
<ellipse fill="none" stroke="black" cx="383.972" cy="-202" rx="61.99" ry="18"/>
<text text-anchor="middle" x="383.972" y="-198.3" font-family="Times,serif" font-size="14.00">ClinicalIsolate</text>
</a>
</g>
</g>
<!-- ClinicalIsolate&#45;&gt;Person -->
<g id="edge26" class="edge"><title>ClinicalIsolate&#45;&gt;Person</title>
<path fill="none" stroke="black" d="M346.592,-216.327C323.893,-227.048 295.828,-243.858 278.682,-267 213.551,-354.903 199.447,-490.325 196.41,-548.665"/>
<polygon fill="black" stroke="black" points="192.9,-548.805 195.95,-558.951 199.893,-549.118 192.9,-548.805"/>
</g>
<!-- ClinicalIsolate&#45;&gt;Isolate -->
<g id="edge25" class="edge"><title>ClinicalIsolate&#45;&gt;Isolate</title>
<path fill="none" stroke="black" d="M339.334,-189.462C320.556,-183.848 298.426,-176.937 278.682,-170 263.094,-164.523 246.104,-157.896 231.572,-152.022"/>
<polygon fill="black" stroke="black" points="232.533,-148.634 221.952,-148.099 229.89,-155.116 232.533,-148.634"/>
</g>
<!-- ClinicalData -->
<g id="node23" class="node"><title>ClinicalData</title>
<g id="a_node23"><a xlink:href="/#clinicaldata" xlink:title="Diagnostic information about a participant" target="_parent">
<ellipse fill="none" stroke="black" cx="383.972" cy="-618" rx="55.4913" ry="18"/>
<text text-anchor="middle" x="383.972" y="-614.3" font-family="Times,serif" font-size="14.00">ClinicalData</text>
</a>
</g>
</g>
<!-- ClinicalData&#45;&gt;DataBatch -->
<g id="edge27" class="edge"><title>ClinicalData&#45;&gt;DataBatch</title>
<path fill="none" stroke="black" d="M333.248,-625.165C307.595,-628.861 276.255,-633.377 249.962,-637.165"/>
<polygon fill="black" stroke="black" points="249.181,-633.741 239.783,-638.632 250.179,-640.67 249.181,-633.741"/>
</g>
<!-- ClinicalData&#45;&gt;Person -->
<g id="edge28" class="edge"><title>ClinicalData&#45;&gt;Person</title>
<path fill="none" stroke="black" d="M337.611,-608.075C306.897,-601.355 266.639,-592.546 236.831,-586.024"/>
<polygon fill="black" stroke="black" points="237.273,-582.538 226.756,-583.82 235.777,-589.377 237.273,-582.538"/>
</g>
<!-- ViralLoadData -->
<g id="node24" class="node"><title>ViralLoadData</title>
<g id="a_node24"><a xlink:href="/#viralloaddata" xlink:title="ViralLoadData" target="_parent">
<ellipse fill="none" stroke="black" cx="383.972" cy="-564" rx="63.8893" ry="18"/>
<text text-anchor="middle" x="383.972" y="-560.3" font-family="Times,serif" font-size="14.00">ViralLoadData</text>
</a>
</g>
</g>
<!-- ViralLoadData&#45;&gt;DataBatch -->
<g id="edge29" class="edge"><title>ViralLoadData&#45;&gt;DataBatch</title>
<path fill="none" stroke="black" d="M330.936,-573.977C313.888,-578.158 295.114,-583.764 278.682,-591 259.728,-599.346 240.226,-611.783 224.882,-622.618"/>
<polygon fill="black" stroke="black" points="222.422,-620.077 216.364,-628.769 226.52,-625.752 222.422,-620.077"/>
</g>
<!-- ViralLoadData&#45;&gt;Person -->
<g id="edge30" class="edge"><title>ViralLoadData&#45;&gt;Person</title>
<path fill="none" stroke="black" d="M321.874,-568.239C294.773,-570.119 263.515,-572.287 238.878,-573.997"/>
<polygon fill="black" stroke="black" points="238.489,-570.515 228.756,-574.699 238.974,-577.498 238.489,-570.515"/>
</g>
<!-- TreatmentMedicationData -->
<g id="node25" class="node"><title>TreatmentMedicationData</title>
<g id="a_node25"><a xlink:href="/#treatmentmedicationdata" xlink:title="How much and what kind of medications were included in a treatment regimen" target="_parent">
<ellipse fill="none" stroke="black" cx="629.904" cy="-390" rx="104.782" ry="18"/>
<text text-anchor="middle" x="629.904" y="-386.3" font-family="Times,serif" font-size="14.00">TreatmentMedicationData</text>
</a>
</g>
</g>
<!-- TreatmentMedicationData&#45;&gt;TreatmentData -->
<g id="edge32" class="edge"><title>TreatmentMedicationData&#45;&gt;TreatmentData</title>
<path fill="none" stroke="black" d="M546.617,-400.996C538.527,-404.957 531.15,-410.169 525.263,-417 427.213,-530.766 587.4,-639.309 489.263,-753 480.644,-762.985 468.86,-769.517 456.307,-773.742"/>
<polygon fill="black" stroke="black" points="455.237,-770.408 446.598,-776.542 457.177,-777.134 455.237,-770.408"/>
</g>
<!-- TreatmentMedicationData&#45;&gt;Medication -->
<g id="edge33" class="edge"><title>TreatmentMedicationData&#45;&gt;Medication</title>
<path fill="none" stroke="black" d="M555.385,-377.342C518.518,-370.994 474.598,-363.432 440.58,-357.574"/>
<polygon fill="black" stroke="black" points="440.808,-354.062 430.359,-355.815 439.62,-360.961 440.808,-354.062"/>
</g>
<!-- GeneticData -->
<g id="node26" class="node"><title>GeneticData</title>
<g id="a_node26"><a xlink:href="/#geneticdata" xlink:title="Records relevant genetic data about participants (e.g. IL28B)" target="_parent">
<ellipse fill="none" stroke="black" cx="383.972" cy="-510" rx="54.6905" ry="18"/>
<text text-anchor="middle" x="383.972" y="-506.3" font-family="Times,serif" font-size="14.00">GeneticData</text>
</a>
</g>
</g>
<!-- GeneticData&#45;&gt;DataBatch -->
<g id="edge34" class="edge"><title>GeneticData&#45;&gt;DataBatch</title>
<path fill="none" stroke="black" d="M331.181,-514.824C313.1,-518.607 293.614,-525.278 278.682,-537 252.092,-557.873 263.773,-577.583 242.682,-604 237.545,-610.433 231.312,-616.657 225.085,-622.231"/>
<polygon fill="black" stroke="black" points="222.604,-619.747 217.283,-628.908 227.156,-625.065 222.604,-619.747"/>
</g>
<!-- GeneticData&#45;&gt;Person -->
<g id="edge35" class="edge"><title>GeneticData&#45;&gt;Person</title>
<path fill="none" stroke="black" d="M337.724,-519.675C319.175,-524.165 297.649,-530.055 278.682,-537 261.5,-543.291 243.099,-551.937 227.991,-559.581"/>
<polygon fill="black" stroke="black" points="226.341,-556.494 219.05,-564.181 229.544,-562.718 226.341,-556.494"/>
</g>
<!-- MedicationAbbreviations -->
<g id="node27" class="node"><title>MedicationAbbreviations</title>
<g id="a_node27"><a xlink:href="/#medicationabbreviations" xlink:title="Common abbreviations for medications" target="_parent">
<ellipse fill="none" stroke="black" cx="629.904" cy="-336" rx="100.983" ry="18"/>
<text text-anchor="middle" x="629.904" y="-332.3" font-family="Times,serif" font-size="14.00">MedicationAbbreviations</text>
</a>
</g>
</g>
<!-- MedicationAbbreviations&#45;&gt;Medication -->
<g id="edge40" class="edge"><title>MedicationAbbreviations&#45;&gt;Medication</title>
<path fill="none" stroke="black" d="M532.496,-340.743C503.105,-342.189 471.64,-343.736 445.352,-345.03"/>
<polygon fill="black" stroke="black" points="444.989,-341.543 435.173,-345.53 445.333,-348.535 444.989,-341.543"/>
</g>
</g>
</svg>
