<?xml version="1.0" encoding="UTF-8" standalone="no"?>
<!DOCTYPE svg PUBLIC "-//W3C//DTD SVG 1.1//EN"
 "http://www.w3.org/Graphics/SVG/1.1/DTD/svg11.dtd">
<!-- Generated by graphviz version 2.38.0 (20140413.2041)
 -->
<!-- Title: SHARED Schema Pages: 1 -->
<svg width="836pt" height="662pt"
 viewBox="0.00 0.00 836.14 662.00" xmlns="http://www.w3.org/2000/svg" xmlns:xlink="http://www.w3.org/1999/xlink">
<g id="graph0" class="graph" transform="scale(1 1) rotate(0) translate(4 658)">
<title>SHARED Schema</title>
<polygon fill="white" stroke="none" points="-4,4 -4,-658 832.136,-658 832.136,4 -4,4"/>
<!-- SusceptibilityResult -->
<g id="node1" class="node"><title>SusceptibilityResult</title>
<g id="a_node1"><a xlink:href="/#susceptibilityresult" xlink:title="Drug susceptibility test results" target="_parent">
<ellipse fill="none" stroke="black" cx="517.21" cy="-592" rx="81.4863" ry="18"/>
<text text-anchor="middle" x="517.21" y="-588.3" font-family="Times,serif" font-size="14.00">SusceptibilityResult</text>
</a>
</g>
</g>
<!-- Isolate -->
<g id="node2" class="node"><title>Isolate</title>
<g id="a_node2"><a xlink:href="/#isolate" xlink:title="Virus isolate (from an individual or used in a lab experiment)" target="_parent">
<ellipse fill="none" stroke="black" cx="275.179" cy="-488" rx="34.394" ry="18"/>
<text text-anchor="middle" x="275.179" y="-484.3" font-family="Times,serif" font-size="14.00">Isolate</text>
</a>
</g>
</g>
<!-- SusceptibilityResult&#45;&gt;Isolate -->
<g id="edge1" class="edge"><title>SusceptibilityResult&#45;&gt;Isolate</title>
<path fill="none" stroke="black" d="M451.375,-581.355C439.103,-577.481 426.868,-572.199 416.469,-565 393.956,-549.413 403.069,-530.463 380.469,-515 362.593,-502.769 339.547,-496.078 319.667,-492.419"/>
<polygon fill="black" stroke="black" points="320.039,-488.933 309.604,-490.768 318.906,-495.841 320.039,-488.933"/>
</g>
<!-- SusceptibilityMethod -->
<g id="node3" class="node"><title>SusceptibilityMethod</title>
<g id="a_node3"><a xlink:href="/#susceptibilitymethod" xlink:title="Susceptibility testing methods" target="_parent">
<ellipse fill="none" stroke="black" cx="275.179" cy="-636" rx="87.1846" ry="18"/>
<text text-anchor="middle" x="275.179" y="-632.3" font-family="Times,serif" font-size="14.00">SusceptibilityMethod</text>
</a>
</g>
</g>
<!-- SusceptibilityResult&#45;&gt;SusceptibilityMethod -->
<g id="edge2" class="edge"><title>SusceptibilityResult&#45;&gt;SusceptibilityMethod</title>
<path fill="none" stroke="black" d="M454.084,-603.388C422.613,-609.157 384.158,-616.206 351.063,-622.273"/>
<polygon fill="black" stroke="black" points="350.183,-618.876 340.978,-624.122 351.445,-625.761 350.183,-618.876"/>
</g>
<!-- Medication -->
<g id="node4" class="node"><title>Medication</title>
<g id="a_node4"><a xlink:href="/#medication" xlink:title="Medication" target="_parent">
<ellipse fill="none" stroke="black" cx="275.179" cy="-542" rx="51.1914" ry="18"/>
<text text-anchor="middle" x="275.179" y="-538.3" font-family="Times,serif" font-size="14.00">Medication</text>
</a>
</g>
</g>
<!-- SusceptibilityResult&#45;&gt;Medication -->
<g id="edge3" class="edge"><title>SusceptibilityResult&#45;&gt;Medication</title>
<path fill="none" stroke="black" d="M457.492,-579.769C418.379,-571.621 367.391,-561 329.452,-553.097"/>
<polygon fill="black" stroke="black" points="330.114,-549.66 319.611,-551.047 328.687,-556.513 330.114,-549.66"/>
</g>
<!-- Reference -->
<g id="node5" class="node"><title>Reference</title>
<g id="a_node5"><a xlink:href="/#reference" xlink:title="A reference to a publication" target="_parent">
<ellipse fill="none" stroke="black" cx="66.9441" cy="-613" rx="46.2923" ry="18"/>
<text text-anchor="middle" x="66.9441" y="-609.3" font-family="Times,serif" font-size="14.00">Reference</text>
</a>
</g>
</g>
<!-- SusceptibilityResult&#45;&gt;Reference -->
<g id="edge4" class="edge"><title>SusceptibilityResult&#45;&gt;Reference</title>
<path fill="none" stroke="black" d="M437.615,-595.682C347.501,-599.904 202.087,-606.716 123.174,-610.413"/>
<polygon fill="black" stroke="black" points="122.783,-606.927 112.958,-610.891 123.111,-613.919 122.783,-606.927"/>
</g>
<!-- MedicalFacility -->
<g id="node6" class="node"><title>MedicalFacility</title>
<g id="a_node6"><a xlink:href="/#medicalfacility" xlink:title="A treatment, diagnosis, or research centre" target="_parent">
<ellipse fill="none" stroke="black" cx="66.9441" cy="-380" rx="66.8882" ry="18"/>
<text text-anchor="middle" x="66.9441" y="-376.3" font-family="Times,serif" font-size="14.00">MedicalFacility</text>
</a>
</g>
</g>
<!-- Isolate&#45;&gt;MedicalFacility -->
<g id="edge5" class="edge"><title>Isolate&#45;&gt;MedicalFacility</title>
<path fill="none" stroke="black" d="M241.922,-483.243C220.664,-479.257 192.653,-472.346 169.888,-461 140.726,-446.466 112.085,-422.619 92.6226,-404.555"/>
<polygon fill="black" stroke="black" points="94.7923,-401.79 85.1237,-397.457 89.9804,-406.873 94.7923,-401.79"/>
</g>
<!-- SusceptibilityMethod&#45;&gt;Reference -->
<g id="edge6" class="edge"><title>SusceptibilityMethod&#45;&gt;Reference</title>
<path fill="none" stroke="black" d="M198.263,-627.534C172.851,-624.7 145.066,-621.601 121.704,-618.995"/>
<polygon fill="black" stroke="black" points="121.971,-615.504 111.645,-617.874 121.195,-622.461 121.971,-615.504"/>
</g>
<!-- Collaborator -->
<g id="node7" class="node"><title>Collaborator</title>
<g id="a_node7"><a xlink:href="/#collaborator" xlink:title="A collaborating site (provides participant data)" target="_parent">
<ellipse fill="none" stroke="black" cx="66.9441" cy="-99" rx="55.4913" ry="18"/>
<text text-anchor="middle" x="66.9441" y="-95.3" font-family="Times,serif" font-size="14.00">Collaborator</text>
</a>
</g>
</g>
<!-- ClinicalIsolate -->
<g id="node8" class="node"><title>ClinicalIsolate</title>
<g id="a_node8"><a xlink:href="/#clinicalisolate" xlink:title="Isolate information" target="_parent">
<ellipse fill="none" stroke="black" cx="517.21" cy="-338" rx="61.99" ry="18"/>
<text text-anchor="middle" x="517.21" y="-334.3" font-family="Times,serif" font-size="14.00">ClinicalIsolate</text>
</a>
</g>
</g>
<!-- ClinicalIsolate&#45;&gt;Isolate -->
<g id="edge7" class="edge"><title>ClinicalIsolate&#45;&gt;Isolate</title>
<path fill="none" stroke="black" d="M458.811,-343.896C443.582,-347.866 428.147,-354.376 416.469,-365 382.763,-395.665 414.344,-430.521 380.469,-461 364.056,-475.768 340.602,-482.658 320.092,-485.794"/>
<polygon fill="black" stroke="black" points="319.473,-482.345 309.996,-487.082 320.359,-489.288 319.473,-482.345"/>
</g>
<!-- Person -->
<g id="node9" class="node"><title>Person</title>
<g id="a_node9"><a xlink:href="/#person" xlink:title="A study participant" target="_parent">
<ellipse fill="none" stroke="black" cx="66.9441" cy="-226" rx="34.394" ry="18"/>
<text text-anchor="middle" x="66.9441" y="-222.3" font-family="Times,serif" font-size="14.00">Person</text>
</a>
</g>
</g>
<!-- ClinicalIsolate&#45;&gt;Person -->
<g id="edge8" class="edge"><title>ClinicalIsolate&#45;&gt;Person</title>
<path fill="none" stroke="black" d="M459.997,-331.078C444.701,-327.094 428.934,-320.833 416.469,-311 390.236,-290.306 408.67,-262.921 380.469,-245 336.98,-217.365 186.506,-220.24 111.355,-223.593"/>
<polygon fill="black" stroke="black" points="111.095,-220.101 101.27,-224.066 111.423,-227.093 111.095,-220.101"/>
</g>
<!-- TreatmentDrugData -->
<g id="node10" class="node"><title>TreatmentDrugData</title>
<g id="a_node10"><a xlink:href="/#treatmentdrugdata" xlink:title="How much and what kind of a drug was included in a treatment regimen" target="_parent">
<ellipse fill="none" stroke="black" cx="517.21" cy="-392" rx="81.7856" ry="18"/>
<text text-anchor="middle" x="517.21" y="-388.3" font-family="Times,serif" font-size="14.00">TreatmentDrugData</text>
</a>
</g>
</g>
<!-- TreatmentDrugData&#45;&gt;Medication -->
<g id="edge9" class="edge"><title>TreatmentDrugData&#45;&gt;Medication</title>
<path fill="none" stroke="black" d="M447.155,-401.466C435.934,-405.464 425.161,-411.093 416.469,-419 382.763,-449.665 414.344,-484.521 380.469,-515 368.15,-526.085 351.864,-532.731 335.833,-536.683"/>
<polygon fill="black" stroke="black" points="334.965,-533.289 325.923,-538.811 336.435,-540.133 334.965,-533.289"/>
</g>
<!-- TreatmentData -->
<g id="node11" class="node"><title>TreatmentData</title>
<g id="a_node11"><a xlink:href="/#treatmentdata" xlink:title="Information about a participant&#39;s treatment" target="_parent">
<ellipse fill="none" stroke="black" cx="275.179" cy="-272" rx="63.8893" ry="18"/>
<text text-anchor="middle" x="275.179" y="-268.3" font-family="Times,serif" font-size="14.00">TreatmentData</text>
</a>
</g>
</g>
<!-- TreatmentDrugData&#45;&gt;TreatmentData -->
<g id="edge10" class="edge"><title>TreatmentDrugData&#45;&gt;TreatmentData</title>
<path fill="none" stroke="black" d="M449.339,-381.927C437.574,-378.002 426.047,-372.555 416.469,-365 390.236,-344.306 406.817,-319.549 380.469,-299 370.069,-290.888 357.484,-285.197 344.707,-281.207"/>
<polygon fill="black" stroke="black" points="345.506,-277.797 334.933,-278.477 343.622,-284.538 345.506,-277.797"/>
</g>
<!-- TreatmentData&#45;&gt;MedicalFacility -->
<g id="edge33" class="edge"><title>TreatmentData&#45;&gt;MedicalFacility</title>
<path fill="none" stroke="black" d="M220.648,-281.331C203.864,-285.434 185.623,-291.158 169.888,-299 140.726,-313.534 112.085,-337.381 92.6226,-355.445"/>
<polygon fill="black" stroke="black" points="89.9804,-353.127 85.1237,-362.543 94.7923,-358.21 89.9804,-353.127"/>
</g>
<!-- TreatmentData&#45;&gt;Collaborator -->
<g id="edge34" class="edge"><title>TreatmentData&#45;&gt;Collaborator</title>
<path fill="none" stroke="black" d="M244.503,-256.224C222.858,-244.086 193.334,-226.186 169.888,-207 138.965,-181.696 108.123,-147.451 88.5962,-124.363"/>
<polygon fill="black" stroke="black" points="91.0353,-121.824 81.9348,-116.399 85.6659,-126.315 91.0353,-121.824"/>
</g>
<!-- TreatmentData&#45;&gt;Person -->
<g id="edge35" class="edge"><title>TreatmentData&#45;&gt;Person</title>
<path fill="none" stroke="black" d="M224.78,-260.982C189.358,-253.081 142.203,-242.563 108.878,-235.13"/>
<polygon fill="black" stroke="black" points="109.53,-231.69 99.0078,-232.929 108.006,-238.522 109.53,-231.69"/>
</g>
<!-- GeneticData -->
<g id="node12" class="node"><title>GeneticData</title>
<g id="a_node12"><a xlink:href="/#geneticdata" xlink:title="Records relevant genetic data about participants (e.g. IL28B)" target="_parent">
<ellipse fill="none" stroke="black" cx="275.179" cy="-380" rx="54.6905" ry="18"/>
<text text-anchor="middle" x="275.179" y="-376.3" font-family="Times,serif" font-size="14.00">GeneticData</text>
</a>
</g>
</g>
<!-- GeneticData&#45;&gt;MedicalFacility -->
<g id="edge11" class="edge"><title>GeneticData&#45;&gt;MedicalFacility</title>
<path fill="none" stroke="black" d="M220.531,-380C197.349,-380 169.796,-380 144.524,-380"/>
<polygon fill="black" stroke="black" points="144.226,-376.5 134.225,-380 144.225,-383.5 144.226,-376.5"/>
</g>
<!-- GeneticData&#45;&gt;Person -->
<g id="edge12" class="edge"><title>GeneticData&#45;&gt;Person</title>
<path fill="none" stroke="black" d="M223.757,-373.687C205.72,-369.747 185.909,-363.357 169.888,-353 130.251,-327.377 98.9594,-281.169 81.9835,-252.117"/>
<polygon fill="black" stroke="black" points="84.9726,-250.293 76.9825,-243.335 78.8898,-253.757 84.9726,-250.293"/>
</g>
<!-- ClinicalData -->
<g id="node13" class="node"><title>ClinicalData</title>
<g id="a_node13"><a xlink:href="/#clinicaldata" xlink:title="Diagnostic information about a participant" target="_parent">
<ellipse fill="none" stroke="black" cx="275.179" cy="-18" rx="55.4913" ry="18"/>
<text text-anchor="middle" x="275.179" y="-14.3" font-family="Times,serif" font-size="14.00">ClinicalData</text>
</a>
</g>
</g>
<!-- ClinicalData&#45;&gt;Collaborator -->
<g id="edge13" class="edge"><title>ClinicalData&#45;&gt;Collaborator</title>
<path fill="none" stroke="black" d="M228.017,-27.4957C209.626,-31.9094 188.457,-37.7929 169.888,-45 146.677,-54.0087 121.97,-67.0016 102.693,-77.985"/>
<polygon fill="black" stroke="black" points="100.875,-74.9929 93.9698,-83.0283 104.379,-81.0529 100.875,-74.9929"/>
</g>
<!-- ClinicalData&#45;&gt;Person -->
<g id="edge14" class="edge"><title>ClinicalData&#45;&gt;Person</title>
<path fill="none" stroke="black" d="M221.361,-22.3335C203.383,-26.0768 184.229,-32.8486 169.888,-45 139.832,-70.468 152.796,-91.4387 133.888,-126 119.368,-152.54 100.056,-181.209 86.0869,-201.016"/>
<polygon fill="black" stroke="black" points="83.2153,-199.015 80.2692,-209.192 88.9188,-203.073 83.2153,-199.015"/>
</g>
<!-- DemographicData -->
<g id="node14" class="node"><title>DemographicData</title>
<g id="a_node14"><a xlink:href="/#demographicdata" xlink:title="Demographic information about a participant" target="_parent">
<ellipse fill="none" stroke="black" cx="275.179" cy="-72" rx="75.2868" ry="18"/>
<text text-anchor="middle" x="275.179" y="-68.3" font-family="Times,serif" font-size="14.00">DemographicData</text>
</a>
</g>
</g>
<!-- DemographicData&#45;&gt;Collaborator -->
<g id="edge15" class="edge"><title>DemographicData&#45;&gt;Collaborator</title>
<path fill="none" stroke="black" d="M208.641,-80.5801C183.037,-83.9322 153.85,-87.7533 128.723,-91.0429"/>
<polygon fill="black" stroke="black" points="128.049,-87.6012 118.588,-92.3697 128.958,-94.5419 128.049,-87.6012"/>
</g>
<!-- DemographicData&#45;&gt;Person -->
<g id="edge16" class="edge"><title>DemographicData&#45;&gt;Person</title>
<path fill="none" stroke="black" d="M210.803,-81.5212C196.607,-85.4801 182.139,-91.0802 169.888,-99 130.251,-124.623 98.9594,-170.831 81.9835,-199.883"/>
<polygon fill="black" stroke="black" points="78.8898,-198.243 76.9825,-208.665 84.9726,-201.707 78.8898,-198.243"/>
</g>
<!-- MedicationAbbreviations -->
<g id="node15" class="node"><title>MedicationAbbreviations</title>
<g id="a_node15"><a xlink:href="/#medicationabbreviations" xlink:title="Common abbreviations for medications" target="_parent">
<ellipse fill="none" stroke="black" cx="517.21" cy="-538" rx="100.983" ry="18"/>
<text text-anchor="middle" x="517.21" y="-534.3" font-family="Times,serif" font-size="14.00">MedicationAbbreviations</text>
</a>
</g>
</g>
<!-- MedicationAbbreviations&#45;&gt;Medication -->
<g id="edge17" class="edge"><title>MedicationAbbreviations&#45;&gt;Medication</title>
<path fill="none" stroke="black" d="M416.848,-539.656C389.651,-540.109 360.994,-540.587 336.695,-540.992"/>
<polygon fill="black" stroke="black" points="336.504,-537.494 326.564,-541.16 336.621,-544.493 336.504,-537.494"/>
</g>
<!-- EventsAndProceduresData -->
<g id="node16" class="node"><title>EventsAndProceduresData</title>
<g id="a_node16"><a xlink:href="/#eventsandproceduresdata" xlink:title="Significant clinical events and/or procedures (e.g. diagnoses, surgeries, etc.)" target="_parent">
<ellipse fill="none" stroke="black" cx="275.179" cy="-326" rx="105.082" ry="18"/>
<text text-anchor="middle" x="275.179" y="-322.3" font-family="Times,serif" font-size="14.00">EventsAndProceduresData</text>
</a>
</g>
</g>
<!-- EventsAndProceduresData&#45;&gt;MedicalFacility -->
<g id="edge18" class="edge"><title>EventsAndProceduresData&#45;&gt;MedicalFacility</title>
<path fill="none" stroke="black" d="M216.242,-340.938C201.147,-344.847 184.905,-349.067 169.888,-353 155.354,-356.806 139.662,-360.947 125.048,-364.816"/>
<polygon fill="black" stroke="black" points="123.901,-361.499 115.131,-367.444 125.694,-368.265 123.901,-361.499"/>
</g>
<!-- EventsAndProceduresData&#45;&gt;Person -->
<g id="edge19" class="edge"><title>EventsAndProceduresData&#45;&gt;Person</title>
<path fill="none" stroke="black" d="M206.418,-312.339C193.98,-308.752 181.324,-304.347 169.888,-299 141.419,-285.688 112.637,-264.173 92.9497,-247.941"/>
<polygon fill="black" stroke="black" points="95.0058,-245.097 85.0967,-241.348 90.5046,-250.458 95.0058,-245.097"/>
</g>
<!-- DeathAndLastFollowup -->
<g id="node17" class="node"><title>DeathAndLastFollowup</title>
<g id="a_node17"><a xlink:href="/#deathandlastfollowup" xlink:title="Records data about &#160;leaving the study" target="_parent">
<ellipse fill="none" stroke="black" cx="275.179" cy="-180" rx="95.5831" ry="18"/>
<text text-anchor="middle" x="275.179" y="-176.3" font-family="Times,serif" font-size="14.00">DeathAndLastFollowup</text>
</a>
</g>
</g>
<!-- DeathAndLastFollowup&#45;&gt;Person -->
<g id="edge20" class="edge"><title>DeathAndLastFollowup&#45;&gt;Person</title>
<path fill="none" stroke="black" d="M212.86,-193.677C179.297,-201.163 138.622,-210.235 108.919,-216.861"/>
<polygon fill="black" stroke="black" points="107.898,-213.502 98.8997,-219.095 109.422,-220.334 107.898,-213.502"/>
</g>
<!-- TreatmentOutcome -->
<g id="node18" class="node"><title>TreatmentOutcome</title>
<g id="a_node18"><a xlink:href="/#treatmentoutcome" xlink:title="Outcome of a participant&#39;s treatment" target="_parent">
<ellipse fill="none" stroke="black" cx="517.21" cy="-284" rx="79.8859" ry="18"/>
<text text-anchor="middle" x="517.21" y="-280.3" font-family="Times,serif" font-size="14.00">TreatmentOutcome</text>
</a>
</g>
</g>
<!-- TreatmentOutcome&#45;&gt;TreatmentData -->
<g id="edge21" class="edge"><title>TreatmentOutcome&#45;&gt;TreatmentData</title>
<path fill="none" stroke="black" d="M438.942,-280.137C409.892,-278.685 376.998,-277.04 348.422,-275.612"/>
<polygon fill="black" stroke="black" points="348.267,-272.1 338.105,-275.096 347.918,-279.091 348.267,-272.1"/>
</g>
<!-- SequenceSubstitution -->
<g id="node19" class="node"><title>SequenceSubstitution</title>
<g id="a_node19"><a xlink:href="/#sequencesubstitution" xlink:title="Indicates that the attached sequence has the attached substitution" target="_parent">
<ellipse fill="none" stroke="black" cx="741.044" cy="-334" rx="87.1846" ry="18"/>
<text text-anchor="middle" x="741.044" y="-330.3" font-family="Times,serif" font-size="14.00">SequenceSubstitution</text>
</a>
</g>
</g>
<!-- Substitution -->
<g id="node20" class="node"><title>Substitution</title>
<g id="a_node20"><a xlink:href="/#substitution" xlink:title="A substitution, insertion, or deletion in an RNA sequence" target="_parent">
<ellipse fill="none" stroke="black" cx="517.21" cy="-230" rx="53.0913" ry="18"/>
<text text-anchor="middle" x="517.21" y="-226.3" font-family="Times,serif" font-size="14.00">Substitution</text>
</a>
</g>
</g>
<!-- SequenceSubstitution&#45;&gt;Substitution -->
<g id="edge22" class="edge"><title>SequenceSubstitution&#45;&gt;Substitution</title>
<path fill="none" stroke="black" d="M716.903,-316.434C693.181,-299.162 654.668,-273.112 617.952,-257 603.937,-250.85 588.186,-245.801 573.413,-241.801"/>
<polygon fill="black" stroke="black" points="573.933,-238.32 563.375,-239.199 572.177,-245.096 573.933,-238.32"/>
</g>
<!-- Sequence -->
<g id="node21" class="node"><title>Sequence</title>
<g id="a_node21"><a xlink:href="/#sequence" xlink:title="Sequences and data needed for rapid alignment" target="_parent">
<ellipse fill="none" stroke="black" cx="517.21" cy="-446" rx="44.393" ry="18"/>
<text text-anchor="middle" x="517.21" y="-442.3" font-family="Times,serif" font-size="14.00">Sequence</text>
</a>
</g>
</g>
<!-- SequenceSubstitution&#45;&gt;Sequence -->
<g id="edge23" class="edge"><title>SequenceSubstitution&#45;&gt;Sequence</title>
<path fill="none" stroke="black" d="M719.371,-351.759C696.13,-370.887 656.575,-400.992 617.952,-419 602.198,-426.345 584.082,-431.997 567.648,-436.187"/>
<polygon fill="black" stroke="black" points="566.561,-432.849 557.669,-438.608 568.212,-439.651 566.561,-432.849"/>
</g>
<!-- Sequence&#45;&gt;Isolate -->
<g id="edge29" class="edge"><title>Sequence&#45;&gt;Isolate</title>
<path fill="none" stroke="black" d="M476.305,-452.983C432.524,-460.643 362.567,-472.884 318.029,-480.677"/>
<polygon fill="black" stroke="black" points="317.355,-477.242 308.108,-482.413 318.562,-484.137 317.355,-477.242"/>
</g>
<!-- DrugUse -->
<g id="node22" class="node"><title>DrugUse</title>
<g id="a_node22"><a xlink:href="/#druguse" xlink:title="Detailed data on drug use" target="_parent">
<ellipse fill="none" stroke="black" cx="517.21" cy="-122" rx="42.4939" ry="18"/>
<text text-anchor="middle" x="517.21" y="-118.3" font-family="Times,serif" font-size="14.00">DrugUse</text>
</a>
</g>
</g>
<!-- BehaviorData -->
<g id="node23" class="node"><title>BehaviorData</title>
<g id="a_node23"><a xlink:href="/#behaviordata" xlink:title="Behavioral information about a participant" target="_parent">
<ellipse fill="none" stroke="black" cx="275.179" cy="-126" rx="59.5901" ry="18"/>
<text text-anchor="middle" x="275.179" y="-122.3" font-family="Times,serif" font-size="14.00">BehaviorData</text>
</a>
</g>
</g>
<!-- DrugUse&#45;&gt;BehaviorData -->
<g id="edge24" class="edge"><title>DrugUse&#45;&gt;BehaviorData</title>
<path fill="none" stroke="black" d="M474.948,-122.688C439.408,-123.28 387.374,-124.147 345.458,-124.845"/>
<polygon fill="black" stroke="black" points="345.252,-121.348 335.312,-125.015 345.369,-128.347 345.252,-121.348"/>
</g>
<!-- BehaviorData&#45;&gt;Collaborator -->
<g id="edge25" class="edge"><title>BehaviorData&#45;&gt;Collaborator</title>
<path fill="none" stroke="black" d="M219.993,-118.906C191.916,-115.23 157.539,-110.73 128.579,-106.938"/>
<polygon fill="black" stroke="black" points="128.95,-103.457 118.58,-105.629 128.041,-110.398 128.95,-103.457"/>
</g>
<!-- BehaviorData&#45;&gt;Person -->
<g id="edge26" class="edge"><title>BehaviorData&#45;&gt;Person</title>
<path fill="none" stroke="black" d="M223.541,-135.16C206.058,-139.342 186.661,-145.157 169.888,-153 141.419,-166.312 112.637,-187.827 92.9497,-204.059"/>
<polygon fill="black" stroke="black" points="90.5046,-201.542 85.0967,-210.652 95.0058,-206.903 90.5046,-201.542"/>
</g>
<!-- TestResult -->
<g id="node24" class="node"><title>TestResult</title>
<g id="a_node24"><a xlink:href="/#testresult" xlink:title="The outcome of a test result (e.g. bilirubin, alt, CD4)" target="_parent">
<ellipse fill="none" stroke="black" cx="275.179" cy="-434" rx="48.1917" ry="18"/>
<text text-anchor="middle" x="275.179" y="-430.3" font-family="Times,serif" font-size="14.00">TestResult</text>
</a>
</g>
</g>
<!-- TestResult&#45;&gt;MedicalFacility -->
<g id="edge27" class="edge"><title>TestResult&#45;&gt;MedicalFacility</title>
<path fill="none" stroke="black" d="M235.041,-423.923C215.468,-418.869 191.419,-412.638 169.888,-407 155.354,-403.194 139.662,-399.053 125.048,-395.184"/>
<polygon fill="black" stroke="black" points="125.694,-391.735 115.131,-392.556 123.901,-398.501 125.694,-391.735"/>
</g>
<!-- TestResult&#45;&gt;Person -->
<g id="edge28" class="edge"><title>TestResult&#45;&gt;Person</title>
<path fill="none" stroke="black" d="M228.069,-430.104C208.53,-426.534 186.493,-419.77 169.888,-407 156.181,-396.458 105.795,-300.125 81.3811,-252.461"/>
<polygon fill="black" stroke="black" points="84.3914,-250.66 76.7254,-243.347 78.1576,-253.844 84.3914,-250.66"/>
</g>
<!-- LabIsolate -->
<g id="node25" class="node"><title>LabIsolate</title>
<g id="a_node25"><a xlink:href="/#labisolate" xlink:title="Isolates created in the lab" target="_parent">
<ellipse fill="none" stroke="black" cx="741.044" cy="-469" rx="48.1917" ry="18"/>
<text text-anchor="middle" x="741.044" y="-465.3" font-family="Times,serif" font-size="14.00">LabIsolate</text>
</a>
</g>
</g>
<!-- LabIsolate&#45;&gt;Isolate -->
<g id="edge30" class="edge"><title>LabIsolate&#45;&gt;Isolate</title>
<path fill="none" stroke="black" d="M693.013,-470.926C602.932,-474.616 407.249,-482.631 319.859,-486.211"/>
<polygon fill="black" stroke="black" points="319.601,-482.718 309.753,-486.625 319.888,-489.713 319.601,-482.718"/>
</g>
<!-- LabIsolate&#45;&gt;Sequence -->
<g id="edge31" class="edge"><title>LabIsolate&#45;&gt;Sequence</title>
<path fill="none" stroke="black" d="M694.617,-464.29C658.583,-460.554 608.182,-455.328 570.475,-451.419"/>
<polygon fill="black" stroke="black" points="570.507,-447.904 560.2,-450.353 569.785,-454.866 570.507,-447.904"/>
</g>
<!-- CauseOfDeath -->
<g id="node26" class="node"><title>CauseOfDeath</title>
<g id="a_node26"><a xlink:href="/#causeofdeath" xlink:title="Primary cause of death and other underlying conditions" target="_parent">
<ellipse fill="none" stroke="black" cx="517.21" cy="-176" rx="62.2891" ry="18"/>
<text text-anchor="middle" x="517.21" y="-172.3" font-family="Times,serif" font-size="14.00">CauseOfDeath</text>
</a>
</g>
</g>
<!-- CauseOfDeath&#45;&gt;DeathAndLastFollowup -->
<g id="edge32" class="edge"><title>CauseOfDeath&#45;&gt;DeathAndLastFollowup</title>
<path fill="none" stroke="black" d="M454.708,-177.025C432.145,-177.401 405.929,-177.838 380.649,-178.259"/>
<polygon fill="black" stroke="black" points="380.582,-174.76 370.642,-178.426 380.699,-181.759 380.582,-174.76"/>
</g>
</g>
</svg>
