<?xml version="1.0" encoding="UTF-8" standalone="no"?>
<!DOCTYPE svg PUBLIC "-//W3C//DTD SVG 1.1//EN"
 "http://www.w3.org/Graphics/SVG/1.1/DTD/svg11.dtd">
<!-- Generated by graphviz version 2.38.0 (20140413.2041)
 -->
<!-- Title: SHARED Schema Pages: 1 -->
<svg width="953pt" height="791pt"
 viewBox="0.00 0.00 952.73 791.00" xmlns="http://www.w3.org/2000/svg" xmlns:xlink="http://www.w3.org/1999/xlink">
<g id="graph0" class="graph" transform="scale(1 1) rotate(0) translate(4 787)">
<title>SHARED Schema</title>
<polygon fill="white" stroke="none" points="-4,4 -4,-787 948.729,-787 948.729,4 -4,4"/>
<!-- SusceptibilityResult -->
<g id="node1" class="node"><title>SusceptibilityResult</title>
<g id="a_node1"><a xlink:href="/#susceptibilityresult" xlink:title="Susceptibility test results" target="_parent">
<ellipse fill="none" stroke="black" cx="629.904" cy="-623" rx="81.4863" ry="18"/>
<text text-anchor="middle" x="629.904" y="-619.3" font-family="Times,serif" font-size="14.00">SusceptibilityResult</text>
</a>
</g>
</g>
<!-- Isolate -->
<g id="node2" class="node"><title>Isolate</title>
<g id="a_node2"><a xlink:href="/#isolate" xlink:title="Virus isolate (from an individual or used in a lab experiment)" target="_parent">
<ellipse fill="none" stroke="black" cx="383.972" cy="-742" rx="34.394" ry="18"/>
<text text-anchor="middle" x="383.972" y="-738.3" font-family="Times,serif" font-size="14.00">Isolate</text>
</a>
</g>
</g>
<!-- SusceptibilityResult&#45;&gt;Isolate -->
<g id="edge1" class="edge"><title>SusceptibilityResult&#45;&gt;Isolate</title>
<path fill="none" stroke="black" d="M583.322,-637.804C564.991,-644.248 543.837,-652.312 525.263,-661 485.725,-679.494 442.563,-705.336 414.704,-722.818"/>
<polygon fill="black" stroke="black" points="412.804,-719.879 406.221,-728.18 416.544,-725.796 412.804,-719.879"/>
</g>
<!-- SusceptibilityMethod -->
<g id="node3" class="node"><title>SusceptibilityMethod</title>
<g id="a_node3"><a xlink:href="/#susceptibilitymethod" xlink:title="Susceptibility testing methods" target="_parent">
<ellipse fill="none" stroke="black" cx="383.972" cy="-650" rx="87.1846" ry="18"/>
<text text-anchor="middle" x="383.972" y="-646.3" font-family="Times,serif" font-size="14.00">SusceptibilityMethod</text>
</a>
</g>
</g>
<!-- SusceptibilityResult&#45;&gt;SusceptibilityMethod -->
<g id="edge2" class="edge"><title>SusceptibilityResult&#45;&gt;SusceptibilityMethod</title>
<path fill="none" stroke="black" d="M556.706,-630.991C529.93,-633.955 499.292,-637.346 471.376,-640.436"/>
<polygon fill="black" stroke="black" points="470.782,-636.981 461.227,-641.56 471.552,-643.938 470.782,-636.981"/>
</g>
<!-- Medication -->
<g id="node4" class="node"><title>Medication</title>
<g id="a_node4"><a xlink:href="/#medication" xlink:title="Medication" target="_parent">
<ellipse fill="none" stroke="black" cx="383.972" cy="-180" rx="51.1914" ry="18"/>
<text text-anchor="middle" x="383.972" y="-176.3" font-family="Times,serif" font-size="14.00">Medication</text>
</a>
</g>
</g>
<!-- SusceptibilityResult&#45;&gt;Medication -->
<g id="edge3" class="edge"><title>SusceptibilityResult&#45;&gt;Medication</title>
<path fill="none" stroke="black" d="M565.273,-612.049C549.983,-606.419 535.214,-597.897 525.263,-585 473.718,-518.194 544.022,-271.199 489.263,-207 478.257,-194.097 461.963,-186.947 445.507,-183.093"/>
<polygon fill="black" stroke="black" points="445.772,-179.579 435.287,-181.098 444.431,-186.449 445.772,-179.579"/>
</g>
<!-- Reference -->
<g id="node5" class="node"><title>Reference</title>
<g id="a_node5"><a xlink:href="/#reference" xlink:title="A reference to a publication" target="_parent">
<ellipse fill="none" stroke="black" cx="194.586" cy="-627" rx="46.2923" ry="18"/>
<text text-anchor="middle" x="194.586" y="-623.3" font-family="Times,serif" font-size="14.00">Reference</text>
</a>
</g>
</g>
<!-- SusceptibilityResult&#45;&gt;Reference -->
<g id="edge4" class="edge"><title>SusceptibilityResult&#45;&gt;Reference</title>
<path fill="none" stroke="black" d="M548.561,-621.903C477.567,-621.196 371.227,-620.774 278.682,-623 269.563,-623.219 259.886,-623.574 250.481,-623.984"/>
<polygon fill="black" stroke="black" points="250.25,-620.49 240.422,-624.446 250.572,-627.483 250.25,-620.49"/>
</g>
<!-- SusceptibilityMethod&#45;&gt;Reference -->
<g id="edge5" class="edge"><title>SusceptibilityMethod&#45;&gt;Reference</title>
<path fill="none" stroke="black" d="M308.643,-640.877C288.641,-638.422 267.408,-635.815 248.808,-633.533"/>
<polygon fill="black" stroke="black" points="249.123,-630.045 238.771,-632.301 248.27,-636.993 249.123,-630.045"/>
</g>
<!-- Collaborator -->
<g id="node6" class="node"><title>Collaborator</title>
<g id="a_node6"><a xlink:href="/#collaborator" xlink:title="A collaborating site (provides participant data)" target="_parent">
<ellipse fill="none" stroke="black" cx="55.2451" cy="-401" rx="55.4913" ry="18"/>
<text text-anchor="middle" x="55.2451" y="-397.3" font-family="Times,serif" font-size="14.00">Collaborator</text>
</a>
</g>
</g>
<!-- ClinicalIsolate -->
<g id="node7" class="node"><title>ClinicalIsolate</title>
<g id="a_node7"><a xlink:href="/#clinicalisolate" xlink:title="Isolate information" target="_parent">
<ellipse fill="none" stroke="black" cx="629.904" cy="-688" rx="61.99" ry="18"/>
<text text-anchor="middle" x="629.904" y="-684.3" font-family="Times,serif" font-size="14.00">ClinicalIsolate</text>
</a>
</g>
</g>
<!-- ClinicalIsolate&#45;&gt;Isolate -->
<g id="edge6" class="edge"><title>ClinicalIsolate&#45;&gt;Isolate</title>
<path fill="none" stroke="black" d="M580.127,-698.798C534.915,-708.807 468.41,-723.529 425.898,-732.94"/>
<polygon fill="black" stroke="black" points="424.904,-729.575 415.897,-735.154 426.417,-736.41 424.904,-729.575"/>
</g>
<!-- Person -->
<g id="node8" class="node"><title>Person</title>
<g id="a_node8"><a xlink:href="/#person" xlink:title="A study participant" target="_parent">
<ellipse fill="none" stroke="black" cx="194.586" cy="-396" rx="34.394" ry="18"/>
<text text-anchor="middle" x="194.586" y="-392.3" font-family="Times,serif" font-size="14.00">Person</text>
</a>
</g>
</g>
<!-- ClinicalIsolate&#45;&gt;Person -->
<g id="edge7" class="edge"><title>ClinicalIsolate&#45;&gt;Person</title>
<path fill="none" stroke="black" d="M571.534,-694.026C484.089,-701.943 322.925,-711.149 278.682,-677 258.135,-661.141 217.539,-491.986 201.917,-424.028"/>
<polygon fill="black" stroke="black" points="205.272,-422.997 199.632,-414.029 198.448,-424.557 205.272,-422.997"/>
</g>
<!-- GeneticData -->
<g id="node9" class="node"><title>GeneticData</title>
<g id="a_node9"><a xlink:href="/#geneticdata" xlink:title="Records relevant genetic data about participants (e.g. IL28B)" target="_parent">
<ellipse fill="none" stroke="black" cx="383.972" cy="-396" rx="54.6905" ry="18"/>
<text text-anchor="middle" x="383.972" y="-392.3" font-family="Times,serif" font-size="14.00">GeneticData</text>
</a>
</g>
</g>
<!-- GeneticData&#45;&gt;Person -->
<g id="edge8" class="edge"><title>GeneticData&#45;&gt;Person</title>
<path fill="none" stroke="black" d="M329.275,-396C300.823,-396 266.314,-396 239.484,-396"/>
<polygon fill="black" stroke="black" points="239.237,-392.5 229.237,-396 239.237,-399.5 239.237,-392.5"/>
</g>
<!-- DataBatch -->
<g id="node10" class="node"><title>DataBatch</title>
<g id="a_node10"><a xlink:href="/#databatch" xlink:title="A study, trial, or other batch of data from a collaborator" target="_parent">
<ellipse fill="none" stroke="black" cx="194.586" cy="-342" rx="48.1917" ry="18"/>
<text text-anchor="middle" x="194.586" y="-338.3" font-family="Times,serif" font-size="14.00">DataBatch</text>
</a>
</g>
</g>
<!-- GeneticData&#45;&gt;DataBatch -->
<g id="edge9" class="edge"><title>GeneticData&#45;&gt;DataBatch</title>
<path fill="none" stroke="black" d="M339.681,-385.42C320.866,-380.66 298.612,-374.812 278.682,-369 266.272,-365.381 252.916,-361.18 240.619,-357.184"/>
<polygon fill="black" stroke="black" points="241.616,-353.828 231.023,-354.04 239.436,-360.48 241.616,-353.828"/>
</g>
<!-- DataBatch&#45;&gt;Collaborator -->
<g id="edge34" class="edge"><title>DataBatch&#45;&gt;Collaborator</title>
<path fill="none" stroke="black" d="M162.421,-355.388C143.701,-363.43 119.616,-373.777 99.1189,-382.582"/>
<polygon fill="black" stroke="black" points="97.4926,-379.471 89.686,-386.634 100.256,-385.903 97.4926,-379.471"/>
</g>
<!-- ClinicalData -->
<g id="node11" class="node"><title>ClinicalData</title>
<g id="a_node11"><a xlink:href="/#clinicaldata" xlink:title="Diagnostic information about a participant" target="_parent">
<ellipse fill="none" stroke="black" cx="383.972" cy="-342" rx="55.4913" ry="18"/>
<text text-anchor="middle" x="383.972" y="-338.3" font-family="Times,serif" font-size="14.00">ClinicalData</text>
</a>
</g>
</g>
<!-- ClinicalData&#45;&gt;Person -->
<g id="edge10" class="edge"><title>ClinicalData&#45;&gt;Person</title>
<path fill="none" stroke="black" d="M339.172,-352.709C320.465,-357.445 298.432,-363.24 278.682,-369 263.917,-373.306 247.813,-378.436 233.747,-383.062"/>
<polygon fill="black" stroke="black" points="232.303,-379.854 223.913,-386.323 234.506,-386.498 232.303,-379.854"/>
</g>
<!-- ClinicalData&#45;&gt;DataBatch -->
<g id="edge11" class="edge"><title>ClinicalData&#45;&gt;DataBatch</title>
<path fill="none" stroke="black" d="M328.521,-342C304.788,-342 276.956,-342 252.908,-342"/>
<polygon fill="black" stroke="black" points="252.856,-338.5 242.856,-342 252.856,-345.5 252.856,-338.5"/>
</g>
<!-- DemographicData -->
<g id="node12" class="node"><title>DemographicData</title>
<g id="a_node12"><a xlink:href="/#demographicdata" xlink:title="Demographic information about a participant" target="_parent">
<ellipse fill="none" stroke="black" cx="383.972" cy="-504" rx="75.2868" ry="18"/>
<text text-anchor="middle" x="383.972" y="-500.3" font-family="Times,serif" font-size="14.00">DemographicData</text>
</a>
</g>
</g>
<!-- DemographicData&#45;&gt;Collaborator -->
<g id="edge12" class="edge"><title>DemographicData&#45;&gt;Collaborator</title>
<path fill="none" stroke="black" d="M330.503,-491.245C313.859,-486.977 295.432,-482.022 278.682,-477 216.953,-458.493 146.741,-433.9 102,-417.771"/>
<polygon fill="black" stroke="black" points="103.17,-414.473 92.576,-414.363 100.79,-421.055 103.17,-414.473"/>
</g>
<!-- DemographicData&#45;&gt;Person -->
<g id="edge13" class="edge"><title>DemographicData&#45;&gt;Person</title>
<path fill="none" stroke="black" d="M321.629,-493.748C306.98,-489.801 291.8,-484.389 278.682,-477 264.924,-469.251 236.86,-440.623 217.168,-419.59"/>
<polygon fill="black" stroke="black" points="219.705,-417.179 210.333,-412.238 214.578,-421.945 219.705,-417.179"/>
</g>
<!-- DemographicData&#45;&gt;DataBatch -->
<g id="edge14" class="edge"><title>DemographicData&#45;&gt;DataBatch</title>
<path fill="none" stroke="black" d="M314.854,-496.703C301.604,-492.603 288.729,-486.382 278.682,-477 241.702,-442.468 274.732,-408.151 242.682,-369 240.465,-366.293 237.901,-363.803 235.137,-361.524"/>
<polygon fill="black" stroke="black" points="237.108,-358.631 226.939,-355.656 233.034,-364.323 237.108,-358.631"/>
</g>
<!-- TreatmentMedicationData -->
<g id="node13" class="node"><title>TreatmentMedicationData</title>
<g id="a_node13"><a xlink:href="/#treatmentmedicationdata" xlink:title="How much and what kind of medications were included in a treatment regimen" target="_parent">
<ellipse fill="none" stroke="black" cx="629.904" cy="-369" rx="104.782" ry="18"/>
<text text-anchor="middle" x="629.904" y="-365.3" font-family="Times,serif" font-size="14.00">TreatmentMedicationData</text>
</a>
</g>
</g>
<!-- TreatmentMedicationData&#45;&gt;Medication -->
<g id="edge15" class="edge"><title>TreatmentMedicationData&#45;&gt;Medication</title>
<path fill="none" stroke="black" d="M618.595,-351.01C598.332,-317.326 549.961,-244.747 489.263,-207 475.19,-198.248 458.364,-192.32 442.378,-188.309"/>
<polygon fill="black" stroke="black" points="443.095,-184.883 432.564,-186.052 441.525,-191.705 443.095,-184.883"/>
</g>
<!-- TreatmentData -->
<g id="node14" class="node"><title>TreatmentData</title>
<g id="a_node14"><a xlink:href="/#treatmentdata" xlink:title="Information about a participant&#39;s treatment" target="_parent">
<ellipse fill="none" stroke="black" cx="383.972" cy="-558" rx="63.8893" ry="18"/>
<text text-anchor="middle" x="383.972" y="-554.3" font-family="Times,serif" font-size="14.00">TreatmentData</text>
</a>
</g>
</g>
<!-- TreatmentMedicationData&#45;&gt;TreatmentData -->
<g id="edge16" class="edge"><title>TreatmentMedicationData&#45;&gt;TreatmentData</title>
<path fill="none" stroke="black" d="M618.595,-386.99C598.332,-420.674 549.961,-493.253 489.263,-531 477.633,-538.233 464.123,-543.537 450.761,-547.424"/>
<polygon fill="black" stroke="black" points="449.842,-544.046 441.086,-550.011 451.651,-550.809 449.842,-544.046"/>
</g>
<!-- TreatmentData&#45;&gt;Collaborator -->
<g id="edge38" class="edge"><title>TreatmentData&#45;&gt;Collaborator</title>
<path fill="none" stroke="black" d="M332.689,-547.309C315.327,-543.008 295.915,-537.511 278.682,-531 217.065,-507.722 203.01,-497.824 146.49,-464 125.826,-451.634 103.636,-436.174 86.4303,-423.664"/>
<polygon fill="black" stroke="black" points="88.0552,-420.516 77.9217,-417.424 83.9151,-426.16 88.0552,-420.516"/>
</g>
<!-- TreatmentData&#45;&gt;Person -->
<g id="edge39" class="edge"><title>TreatmentData&#45;&gt;Person</title>
<path fill="none" stroke="black" d="M324.826,-551.147C308.755,-547.166 292.071,-540.89 278.682,-531 241.688,-503.675 217.583,-454.499 205.304,-423.643"/>
<polygon fill="black" stroke="black" points="208.433,-422.028 201.591,-413.939 201.895,-424.53 208.433,-422.028"/>
</g>
<!-- TreatmentData&#45;&gt;DataBatch -->
<g id="edge40" class="edge"><title>TreatmentData&#45;&gt;DataBatch</title>
<path fill="none" stroke="black" d="M321.953,-553.672C306.013,-549.728 290.116,-542.838 278.682,-531 227.44,-477.95 286.4,-428.403 242.682,-369 240.671,-366.267 238.294,-363.769 235.694,-361.494"/>
<polygon fill="black" stroke="black" points="237.486,-358.466 227.368,-355.324 233.318,-364.09 237.486,-358.466"/>
</g>
<!-- MedicationAbbreviations -->
<g id="node15" class="node"><title>MedicationAbbreviations</title>
<g id="a_node15"><a xlink:href="/#medicationabbreviations" xlink:title="Common abbreviations for medications" target="_parent">
<ellipse fill="none" stroke="black" cx="629.904" cy="-180" rx="100.983" ry="18"/>
<text text-anchor="middle" x="629.904" y="-176.3" font-family="Times,serif" font-size="14.00">MedicationAbbreviations</text>
</a>
</g>
</g>
<!-- MedicationAbbreviations&#45;&gt;Medication -->
<g id="edge17" class="edge"><title>MedicationAbbreviations&#45;&gt;Medication</title>
<path fill="none" stroke="black" d="M528.984,-180C500.768,-180 470.923,-180 445.765,-180"/>
<polygon fill="black" stroke="black" points="445.649,-176.5 435.649,-180 445.649,-183.5 445.649,-176.5"/>
</g>
<!-- EventsAndProceduresData -->
<g id="node16" class="node"><title>EventsAndProceduresData</title>
<g id="a_node16"><a xlink:href="/#eventsandproceduresdata" xlink:title="Significant clinical events and/or procedures (e.g. diagnosed comorbid conditions, surgeries, transplants, etc.)" target="_parent">
<ellipse fill="none" stroke="black" cx="383.972" cy="-288" rx="105.082" ry="18"/>
<text text-anchor="middle" x="383.972" y="-284.3" font-family="Times,serif" font-size="14.00">EventsAndProceduresData</text>
</a>
</g>
</g>
<!-- EventsAndProceduresData&#45;&gt;Person -->
<g id="edge18" class="edge"><title>EventsAndProceduresData&#45;&gt;Person</title>
<path fill="none" stroke="black" d="M307.37,-300.479C297.185,-304.141 287.294,-308.877 278.682,-315 255.173,-331.714 263.754,-349.303 242.682,-369 238.822,-372.608 234.394,-375.931 229.832,-378.92"/>
<polygon fill="black" stroke="black" points="227.761,-376.081 221.007,-384.245 231.378,-382.075 227.761,-376.081"/>
</g>
<!-- EventsAndProceduresData&#45;&gt;DataBatch -->
<g id="edge19" class="edge"><title>EventsAndProceduresData&#45;&gt;DataBatch</title>
<path fill="none" stroke="black" d="M323.238,-302.798C308.617,-306.604 293.046,-310.811 278.682,-315 266.272,-318.619 252.916,-322.82 240.619,-326.816"/>
<polygon fill="black" stroke="black" points="239.436,-323.52 231.023,-329.96 241.616,-330.172 239.436,-323.52"/>
</g>
<!-- DeathAndLastFollowup -->
<g id="node17" class="node"><title>DeathAndLastFollowup</title>
<g id="a_node17"><a xlink:href="/#deathandlastfollowup" xlink:title="Records data about &#160;leaving the study" target="_parent">
<ellipse fill="none" stroke="black" cx="383.972" cy="-126" rx="95.5831" ry="18"/>
<text text-anchor="middle" x="383.972" y="-122.3" font-family="Times,serif" font-size="14.00">DeathAndLastFollowup</text>
</a>
</g>
</g>
<!-- DeathAndLastFollowup&#45;&gt;Person -->
<g id="edge20" class="edge"><title>DeathAndLastFollowup&#45;&gt;Person</title>
<path fill="none" stroke="black" d="M303.642,-135.876C294.244,-139.941 285.565,-145.482 278.682,-153 212.963,-224.785 298.251,-289.1 242.682,-369 239.73,-373.243 235.882,-376.908 231.657,-380.047"/>
<polygon fill="black" stroke="black" points="229.745,-377.115 223.203,-385.449 233.514,-383.014 229.745,-377.115"/>
</g>
<!-- DeathAndLastFollowup&#45;&gt;DataBatch -->
<g id="edge21" class="edge"><title>DeathAndLastFollowup&#45;&gt;DataBatch</title>
<path fill="none" stroke="black" d="M307.143,-136.855C296.815,-140.741 286.944,-145.971 278.682,-153 252.866,-174.964 219.843,-267.626 204.35,-314.541"/>
<polygon fill="black" stroke="black" points="201.011,-313.49 201.233,-324.083 207.665,-315.664 201.011,-313.49"/>
</g>
<!-- TreatmentOutcome -->
<g id="node18" class="node"><title>TreatmentOutcome</title>
<g id="a_node18"><a xlink:href="/#treatmentoutcome" xlink:title="Outcome of a participant&#39;s treatment" target="_parent">
<ellipse fill="none" stroke="black" cx="629.904" cy="-558" rx="79.8859" ry="18"/>
<text text-anchor="middle" x="629.904" y="-554.3" font-family="Times,serif" font-size="14.00">TreatmentOutcome</text>
</a>
</g>
</g>
<!-- TreatmentOutcome&#45;&gt;TreatmentData -->
<g id="edge22" class="edge"><title>TreatmentOutcome&#45;&gt;TreatmentData</title>
<path fill="none" stroke="black" d="M549.706,-558C520.213,-558 486.901,-558 457.988,-558"/>
<polygon fill="black" stroke="black" points="457.958,-554.5 447.958,-558 457.958,-561.5 457.958,-554.5"/>
</g>
<!-- SequenceSubstitution -->
<g id="node19" class="node"><title>SequenceSubstitution</title>
<g id="a_node19"><a xlink:href="/#sequencesubstitution" xlink:title="Indicates that the attached sequence has the attached substitution" target="_parent">
<ellipse fill="none" stroke="black" cx="857.637" cy="-376" rx="87.1846" ry="18"/>
<text text-anchor="middle" x="857.637" y="-372.3" font-family="Times,serif" font-size="14.00">SequenceSubstitution</text>
</a>
</g>
</g>
<!-- Substitution -->
<g id="node20" class="node"><title>Substitution</title>
<g id="a_node20"><a xlink:href="/#substitution" xlink:title="A substitution, insertion, or deletion in an RNA sequence" target="_parent">
<ellipse fill="none" stroke="black" cx="629.904" cy="-18" rx="53.0913" ry="18"/>
<text text-anchor="middle" x="629.904" y="-14.3" font-family="Times,serif" font-size="14.00">Substitution</text>
</a>
</g>
</g>
<!-- SequenceSubstitution&#45;&gt;Substitution -->
<g id="edge23" class="edge"><title>SequenceSubstitution&#45;&gt;Substitution</title>
<path fill="none" stroke="black" d="M855.584,-357.754C851.352,-301.967 830.772,-132.185 734.544,-45 722.846,-34.4005 707.507,-27.8618 692.23,-23.8564"/>
<polygon fill="black" stroke="black" points="692.766,-20.3889 682.238,-21.5728 691.207,-27.2129 692.766,-20.3889"/>
</g>
<!-- Sequence -->
<g id="node21" class="node"><title>Sequence</title>
<g id="a_node21"><a xlink:href="/#sequence" xlink:title="Sequences and data needed for rapid alignment" target="_parent">
<ellipse fill="none" stroke="black" cx="629.904" cy="-742" rx="44.393" ry="18"/>
<text text-anchor="middle" x="629.904" y="-738.3" font-family="Times,serif" font-size="14.00">Sequence</text>
</a>
</g>
</g>
<!-- SequenceSubstitution&#45;&gt;Sequence -->
<g id="edge24" class="edge"><title>SequenceSubstitution&#45;&gt;Sequence</title>
<path fill="none" stroke="black" d="M855.762,-394.274C852.031,-450.959 832.71,-625.37 734.544,-715 720.828,-727.524 702.035,-734.385 684.216,-738.096"/>
<polygon fill="black" stroke="black" points="683.115,-734.737 673.883,-739.936 684.342,-741.628 683.115,-734.737"/>
</g>
<!-- Sequence&#45;&gt;Isolate -->
<g id="edge33" class="edge"><title>Sequence&#45;&gt;Isolate</title>
<path fill="none" stroke="black" d="M585.575,-742C541.341,-742 473.05,-742 428.679,-742"/>
<polygon fill="black" stroke="black" points="428.494,-738.5 418.494,-742 428.494,-745.5 428.494,-738.5"/>
</g>
<!-- ViralLoadData -->
<g id="node22" class="node"><title>ViralLoadData</title>
<g id="a_node22"><a xlink:href="/#viralloaddata" xlink:title="ViralLoadData" target="_parent">
<ellipse fill="none" stroke="black" cx="383.972" cy="-234" rx="63.8893" ry="18"/>
<text text-anchor="middle" x="383.972" y="-230.3" font-family="Times,serif" font-size="14.00">ViralLoadData</text>
</a>
</g>
</g>
<!-- ViralLoadData&#45;&gt;Person -->
<g id="edge25" class="edge"><title>ViralLoadData&#45;&gt;Person</title>
<path fill="none" stroke="black" d="M322.721,-239.109C306.793,-243.066 290.711,-249.767 278.682,-261 241.702,-295.532 274.732,-329.849 242.682,-369 239.407,-373 235.375,-376.525 231.059,-379.595"/>
<polygon fill="black" stroke="black" points="229.144,-376.664 222.534,-384.944 232.865,-382.593 229.144,-376.664"/>
</g>
<!-- ViralLoadData&#45;&gt;DataBatch -->
<g id="edge26" class="edge"><title>ViralLoadData&#45;&gt;DataBatch</title>
<path fill="none" stroke="black" d="M327.866,-242.648C311.359,-246.693 293.674,-252.555 278.682,-261 253.566,-275.147 230.566,-298.785 215.164,-316.884"/>
<polygon fill="black" stroke="black" points="212.327,-314.822 208.642,-324.756 217.717,-319.288 212.327,-314.822"/>
</g>
<!-- NarcoticsUse -->
<g id="node23" class="node"><title>NarcoticsUse</title>
<g id="a_node23"><a xlink:href="/#narcoticsuse" xlink:title="Detailed data on narcotics use" target="_parent">
<ellipse fill="none" stroke="black" cx="629.904" cy="-72" rx="57.6901" ry="18"/>
<text text-anchor="middle" x="629.904" y="-68.3" font-family="Times,serif" font-size="14.00">NarcoticsUse</text>
</a>
</g>
</g>
<!-- BehaviorData -->
<g id="node24" class="node"><title>BehaviorData</title>
<g id="a_node24"><a xlink:href="/#behaviordata" xlink:title="Behavioral information about a participant" target="_parent">
<ellipse fill="none" stroke="black" cx="383.972" cy="-72" rx="59.5901" ry="18"/>
<text text-anchor="middle" x="383.972" y="-68.3" font-family="Times,serif" font-size="14.00">BehaviorData</text>
</a>
</g>
</g>
<!-- NarcoticsUse&#45;&gt;BehaviorData -->
<g id="edge27" class="edge"><title>NarcoticsUse&#45;&gt;BehaviorData</title>
<path fill="none" stroke="black" d="M572.02,-72C536.89,-72 491.572,-72 454.342,-72"/>
<polygon fill="black" stroke="black" points="454.071,-68.5001 444.071,-72 454.071,-75.5001 454.071,-68.5001"/>
</g>
<!-- BehaviorData&#45;&gt;Collaborator -->
<g id="edge28" class="edge"><title>BehaviorData&#45;&gt;Collaborator</title>
<path fill="none" stroke="black" d="M328.572,-78.7942C311.556,-82.7618 293.4,-89.0462 278.682,-99 171.126,-171.74 96.1711,-314.386 68.2843,-373.907"/>
<polygon fill="black" stroke="black" points="65.0781,-372.502 64.067,-383.048 71.4343,-375.434 65.0781,-372.502"/>
</g>
<!-- BehaviorData&#45;&gt;Person -->
<g id="edge29" class="edge"><title>BehaviorData&#45;&gt;Person</title>
<path fill="none" stroke="black" d="M324.817,-74.8839C307.681,-78.6295 290.402,-85.7709 278.682,-99 198.4,-189.614 310.176,-268.499 242.682,-369 239.8,-373.291 235.991,-376.983 231.785,-380.135"/>
<polygon fill="black" stroke="black" points="229.874,-377.202 223.347,-385.547 233.654,-383.095 229.874,-377.202"/>
</g>
<!-- BehaviorData&#45;&gt;DataBatch -->
<g id="edge30" class="edge"><title>BehaviorData&#45;&gt;DataBatch</title>
<path fill="none" stroke="black" d="M325.761,-76.4587C308.878,-80.3091 291.509,-87.1144 278.682,-99 274.557,-102.821 225.316,-251.568 204.638,-314.419"/>
<polygon fill="black" stroke="black" points="201.261,-313.484 201.463,-324.077 207.911,-315.67 201.261,-313.484"/>
</g>
<!-- TestResult -->
<g id="node25" class="node"><title>TestResult</title>
<g id="a_node25"><a xlink:href="/#testresult" xlink:title="The outcome of a test result (e.g. bilirubin, alt, CD4)" target="_parent">
<ellipse fill="none" stroke="black" cx="383.972" cy="-450" rx="48.1917" ry="18"/>
<text text-anchor="middle" x="383.972" y="-446.3" font-family="Times,serif" font-size="14.00">TestResult</text>
</a>
</g>
</g>
<!-- TestResult&#45;&gt;Person -->
<g id="edge31" class="edge"><title>TestResult&#45;&gt;Person</title>
<path fill="none" stroke="black" d="M343.199,-440.307C323.682,-435.398 299.869,-429.178 278.682,-423 263.917,-418.694 247.813,-413.564 233.747,-408.938"/>
<polygon fill="black" stroke="black" points="234.506,-405.502 223.913,-405.677 232.303,-412.146 234.506,-405.502"/>
</g>
<!-- TestResult&#45;&gt;DataBatch -->
<g id="edge32" class="edge"><title>TestResult&#45;&gt;DataBatch</title>
<path fill="none" stroke="black" d="M337.306,-445.504C317.85,-441.823 295.754,-435.138 278.682,-423 255.173,-406.286 263.754,-388.697 242.682,-369 239.82,-366.325 236.646,-363.807 233.337,-361.466"/>
<polygon fill="black" stroke="black" points="235.228,-358.521 224.933,-356.02 231.422,-364.395 235.228,-358.521"/>
</g>
<!-- LabIsolate -->
<g id="node26" class="node"><title>LabIsolate</title>
<g id="a_node26"><a xlink:href="/#labisolate" xlink:title="Isolates created in the lab" target="_parent">
<ellipse fill="none" stroke="black" cx="857.637" cy="-765" rx="48.1917" ry="18"/>
<text text-anchor="middle" x="857.637" y="-761.3" font-family="Times,serif" font-size="14.00">LabIsolate</text>
</a>
</g>
</g>
<!-- LabIsolate&#45;&gt;Isolate -->
<g id="edge35" class="edge"><title>LabIsolate&#45;&gt;Isolate</title>
<path fill="none" stroke="black" d="M809.684,-766.898C786.989,-767.723 759.354,-768.594 734.544,-769 641.543,-770.523 617.857,-777.829 525.263,-769 491.178,-765.75 453.059,-758.154 425.168,-751.844"/>
<polygon fill="black" stroke="black" points="425.912,-748.424 415.381,-749.588 424.339,-755.245 425.912,-748.424"/>
</g>
<!-- LabIsolate&#45;&gt;Sequence -->
<g id="edge36" class="edge"><title>LabIsolate&#45;&gt;Sequence</title>
<path fill="none" stroke="black" d="M810.956,-760.346C773.941,-756.574 721.767,-751.258 683.106,-747.319"/>
<polygon fill="black" stroke="black" points="683.388,-743.83 673.085,-746.298 682.679,-750.794 683.388,-743.83"/>
</g>
<!-- CauseOfDeath -->
<g id="node27" class="node"><title>CauseOfDeath</title>
<g id="a_node27"><a xlink:href="/#causeofdeath" xlink:title="Primary cause of death and other underlying conditions" target="_parent">
<ellipse fill="none" stroke="black" cx="629.904" cy="-126" rx="62.2891" ry="18"/>
<text text-anchor="middle" x="629.904" y="-122.3" font-family="Times,serif" font-size="14.00">CauseOfDeath</text>
</a>
</g>
</g>
<!-- CauseOfDeath&#45;&gt;DeathAndLastFollowup -->
<g id="edge37" class="edge"><title>CauseOfDeath&#45;&gt;DeathAndLastFollowup</title>
<path fill="none" stroke="black" d="M567.35,-126C543.821,-126 516.281,-126 489.834,-126"/>
<polygon fill="black" stroke="black" points="489.763,-122.5 479.763,-126 489.763,-129.5 489.763,-122.5"/>
</g>
</g>
</svg>
