<?xml version="1.0" encoding="UTF-8" standalone="no"?>
<!DOCTYPE svg PUBLIC "-//W3C//DTD SVG 1.1//EN"
 "http://www.w3.org/Graphics/SVG/1.1/DTD/svg11.dtd">
<!-- Generated by graphviz version 2.38.0 (20140413.2041)
 -->
<!-- Title: SHARED Schema Pages: 1 -->
<svg width="739pt" height="628pt"
 viewBox="0.00 0.00 738.64 628.00" xmlns="http://www.w3.org/2000/svg" xmlns:xlink="http://www.w3.org/1999/xlink">
<g id="graph0" class="graph" transform="scale(1 1) rotate(0) translate(4 624)">
<title>SHARED Schema</title>
<polygon fill="white" stroke="none" points="-4,4 -4,-624 734.645,-624 734.645,4 -4,4"/>
<!-- SourceStudy -->
<g id="node1" class="node"><title>SourceStudy</title>
<g id="a_node1"><a xlink:href="/#sourcestudy" xlink:title="A study, trial, or other batch of data from a collaborator" target="_parent">
<ellipse fill="none" stroke="black" cx="202.385" cy="-467" rx="55.7903" ry="18"/>
<text text-anchor="middle" x="202.385" y="-463.3" font-family="Times,serif" font-size="14.00">SourceStudy</text>
</a>
</g>
</g>
<!-- Collaborator -->
<g id="node2" class="node"><title>Collaborator</title>
<g id="a_node2"><a xlink:href="/#collaborator" xlink:title="A collaborating site (provides participant data)" target="_parent">
<ellipse fill="none" stroke="black" cx="55.2451" cy="-467" rx="55.4913" ry="18"/>
<text text-anchor="middle" x="55.2451" y="-463.3" font-family="Times,serif" font-size="14.00">Collaborator</text>
</a>
</g>
</g>
<!-- SourceStudy&#45;&gt;Collaborator -->
<g id="edge1" class="edge"><title>SourceStudy&#45;&gt;Collaborator</title>
<path fill="none" stroke="black" d="M146.1,-467C137.899,-467 129.385,-467 121.011,-467"/>
<polygon fill="black" stroke="black" points="120.897,-463.5 110.897,-467 120.897,-470.5 120.897,-463.5"/>
</g>
<!-- SusceptibilityMethod -->
<g id="node3" class="node"><title>SusceptibilityMethod</title>
<g id="a_node3"><a xlink:href="/#susceptibilitymethod" xlink:title="Susceptibility testing methods" target="_parent">
<ellipse fill="none" stroke="black" cx="389.822" cy="-240" rx="87.1846" ry="18"/>
<text text-anchor="middle" x="389.822" y="-236.3" font-family="Times,serif" font-size="14.00">SusceptibilityMethod</text>
</a>
</g>
</g>
<!-- Reference -->
<g id="node4" class="node"><title>Reference</title>
<g id="a_node4"><a xlink:href="/#reference" xlink:title="A reference to a publication" target="_parent">
<ellipse fill="none" stroke="black" cx="202.385" cy="-240" rx="46.2923" ry="18"/>
<text text-anchor="middle" x="202.385" y="-236.3" font-family="Times,serif" font-size="14.00">Reference</text>
</a>
</g>
</g>
<!-- SusceptibilityMethod&#45;&gt;Reference -->
<g id="edge2" class="edge"><title>SusceptibilityMethod&#45;&gt;Reference</title>
<path fill="none" stroke="black" d="M302.618,-240C287.846,-240 272.852,-240 259.146,-240"/>
<polygon fill="black" stroke="black" points="258.941,-236.5 248.941,-240 258.941,-243.5 258.941,-236.5"/>
</g>
<!-- Person -->
<g id="node5" class="node"><title>Person</title>
<g id="a_node5"><a xlink:href="/#person" xlink:title="A study participant" target="_parent">
<ellipse fill="none" stroke="black" cx="202.385" cy="-521" rx="34.394" ry="18"/>
<text text-anchor="middle" x="202.385" y="-517.3" font-family="Times,serif" font-size="14.00">Person</text>
</a>
</g>
</g>
<!-- LabIsolate -->
<g id="node6" class="node"><title>LabIsolate</title>
<g id="a_node6"><a xlink:href="/#labisolate" xlink:title="Isolates created in the lab" target="_parent">
<ellipse fill="none" stroke="black" cx="626.004" cy="-118" rx="48.1917" ry="18"/>
<text text-anchor="middle" x="626.004" y="-114.3" font-family="Times,serif" font-size="14.00">LabIsolate</text>
</a>
</g>
</g>
<!-- LabIsolate&#45;&gt;Reference -->
<g id="edge5" class="edge"><title>LabIsolate&#45;&gt;Reference</title>
<path fill="none" stroke="black" d="M587.277,-128.717C525.838,-146.197 400.364,-182.009 294.28,-213 279.644,-217.276 263.7,-221.992 249.311,-226.27"/>
<polygon fill="black" stroke="black" points="248.218,-222.944 239.632,-229.151 250.215,-229.653 248.218,-222.944"/>
</g>
<!-- Sequence -->
<g id="node7" class="node"><title>Sequence</title>
<g id="a_node7"><a xlink:href="/#sequence" xlink:title="Sequences and data needed for rapid alignment" target="_parent">
<ellipse fill="none" stroke="black" cx="389.822" cy="-72" rx="44.393" ry="18"/>
<text text-anchor="middle" x="389.822" y="-68.3" font-family="Times,serif" font-size="14.00">Sequence</text>
</a>
</g>
</g>
<!-- LabIsolate&#45;&gt;Sequence -->
<g id="edge3" class="edge"><title>LabIsolate&#45;&gt;Sequence</title>
<path fill="none" stroke="black" d="M583.137,-109.776C542.944,-101.881 482.244,-89.9579 439.821,-81.6247"/>
<polygon fill="black" stroke="black" points="440.477,-78.1869 429.99,-79.6937 439.128,-85.0556 440.477,-78.1869"/>
</g>
<!-- Isolate -->
<g id="node8" class="node"><title>Isolate</title>
<g id="a_node8"><a xlink:href="/#isolate" xlink:title="Virus isolate (from an individual or used in a lab experiment)" target="_parent">
<ellipse fill="none" stroke="black" cx="202.385" cy="-152" rx="34.394" ry="18"/>
<text text-anchor="middle" x="202.385" y="-148.3" font-family="Times,serif" font-size="14.00">Isolate</text>
</a>
</g>
</g>
<!-- LabIsolate&#45;&gt;Isolate -->
<g id="edge4" class="edge"><title>LabIsolate&#45;&gt;Isolate</title>
<path fill="none" stroke="black" d="M578.405,-120.834C514.335,-124.856 395.468,-132.766 294.28,-142 278.609,-143.43 261.446,-145.252 246.296,-146.948"/>
<polygon fill="black" stroke="black" points="245.714,-143.491 236.172,-148.096 246.503,-150.447 245.714,-143.491"/>
</g>
<!-- Sequence&#45;&gt;Isolate -->
<g id="edge20" class="edge"><title>Sequence&#45;&gt;Isolate</title>
<path fill="none" stroke="black" d="M353.747,-82.401C335.716,-88.1152 313.542,-95.7171 294.28,-104 274.085,-112.684 252.278,-124.126 235.088,-133.659"/>
<polygon fill="black" stroke="black" points="233.06,-130.784 226.052,-138.73 236.485,-136.889 233.06,-130.784"/>
</g>
<!-- TestResult -->
<g id="node9" class="node"><title>TestResult</title>
<g id="a_node9"><a xlink:href="/#testresult" xlink:title="Results of a participant&#39;s clinical tests" target="_parent">
<ellipse fill="none" stroke="black" cx="389.822" cy="-602" rx="48.1917" ry="18"/>
<text text-anchor="middle" x="389.822" y="-598.3" font-family="Times,serif" font-size="14.00">TestResult</text>
</a>
</g>
</g>
<!-- TestResult&#45;&gt;SourceStudy -->
<g id="edge6" class="edge"><title>TestResult&#45;&gt;SourceStudy</title>
<path fill="none" stroke="black" d="M343.068,-597.171C326.145,-593.41 307.81,-586.756 294.28,-575 264.543,-549.16 285.59,-522.393 258.28,-494 255.34,-490.943 251.981,-488.183 248.405,-485.701"/>
<polygon fill="black" stroke="black" points="250.12,-482.647 239.765,-480.407 246.463,-488.616 250.12,-482.647"/>
</g>
<!-- TestResult&#45;&gt;Person -->
<g id="edge7" class="edge"><title>TestResult&#45;&gt;Person</title>
<path fill="none" stroke="black" d="M348.004,-592.804C331.041,-588.356 311.365,-582.367 294.28,-575 272.607,-565.654 249.774,-552.073 232.414,-540.869"/>
<polygon fill="black" stroke="black" points="234.151,-537.823 223.87,-535.262 230.31,-543.675 234.151,-537.823"/>
</g>
<!-- ClinicalTest -->
<g id="node10" class="node"><title>ClinicalTest</title>
<g id="a_node10"><a xlink:href="/#clinicaltest" xlink:title="Meta&#45;data for clinical tests (e.g. viral&#45;load assays, fibroscans, etc.)" target="_parent">
<ellipse fill="none" stroke="black" cx="202.385" cy="-602" rx="53.8905" ry="18"/>
<text text-anchor="middle" x="202.385" y="-598.3" font-family="Times,serif" font-size="14.00">ClinicalTest</text>
</a>
</g>
</g>
<!-- TestResult&#45;&gt;ClinicalTest -->
<g id="edge8" class="edge"><title>TestResult&#45;&gt;ClinicalTest</title>
<path fill="none" stroke="black" d="M341.549,-602C318.827,-602 291.267,-602 266.758,-602"/>
<polygon fill="black" stroke="black" points="266.464,-598.5 256.464,-602 266.464,-605.5 266.464,-598.5"/>
</g>
<!-- BehaviorData -->
<g id="node11" class="node"><title>BehaviorData</title>
<g id="a_node11"><a xlink:href="/#behaviordata" xlink:title="Behavioral information about a participant" target="_parent">
<ellipse fill="none" stroke="black" cx="389.822" cy="-548" rx="59.5901" ry="18"/>
<text text-anchor="middle" x="389.822" y="-544.3" font-family="Times,serif" font-size="14.00">BehaviorData</text>
</a>
</g>
</g>
<!-- BehaviorData&#45;&gt;SourceStudy -->
<g id="edge9" class="edge"><title>BehaviorData&#45;&gt;SourceStudy</title>
<path fill="none" stroke="black" d="M340.425,-537.82C325.216,-533.671 308.652,-528.135 294.28,-521 276.367,-512.106 275.328,-504.459 258.28,-494 253.922,-491.326 249.262,-488.703 244.567,-486.207"/>
<polygon fill="black" stroke="black" points="246.061,-483.039 235.567,-481.581 242.861,-489.265 246.061,-483.039"/>
</g>
<!-- BehaviorData&#45;&gt;Person -->
<g id="edge10" class="edge"><title>BehaviorData&#45;&gt;Person</title>
<path fill="none" stroke="black" d="M335.683,-540.263C307.244,-536.122 272.689,-531.091 246.027,-527.209"/>
<polygon fill="black" stroke="black" points="246.259,-523.706 235.859,-525.728 245.25,-530.633 246.259,-523.706"/>
</g>
<!-- Medication -->
<g id="node12" class="node"><title>Medication</title>
<g id="a_node12"><a xlink:href="/#medication" xlink:title="Anti&#45;HCV drugs. Phenotypic resistance tests and treatment records reference this table." target="_parent">
<ellipse fill="none" stroke="black" cx="389.822" cy="-332" rx="51.1914" ry="18"/>
<text text-anchor="middle" x="389.822" y="-328.3" font-family="Times,serif" font-size="14.00">Medication</text>
</a>
</g>
</g>
<!-- TreatmentMedicationData -->
<g id="node13" class="node"><title>TreatmentMedicationData</title>
<g id="a_node13"><a xlink:href="/#treatmentmedicationdata" xlink:title="How much and what kind of medications were included in a treatment regimen" target="_parent">
<ellipse fill="none" stroke="black" cx="626.004" cy="-386" rx="104.782" ry="18"/>
<text text-anchor="middle" x="626.004" y="-382.3" font-family="Times,serif" font-size="14.00">TreatmentMedicationData</text>
</a>
</g>
</g>
<!-- TreatmentMedicationData&#45;&gt;Medication -->
<g id="edge11" class="edge"><title>TreatmentMedicationData&#45;&gt;Medication</title>
<path fill="none" stroke="black" d="M562.555,-371.6C525.312,-363.012 478.562,-352.232 443.246,-344.089"/>
<polygon fill="black" stroke="black" points="443.673,-340.595 433.142,-341.759 442.1,-347.416 443.673,-340.595"/>
</g>
<!-- TreatmentData -->
<g id="node14" class="node"><title>TreatmentData</title>
<g id="a_node14"><a xlink:href="/#treatmentdata" xlink:title="Information about a participant&#39;s treatment" target="_parent">
<ellipse fill="none" stroke="black" cx="389.822" cy="-494" rx="63.8893" ry="18"/>
<text text-anchor="middle" x="389.822" y="-490.3" font-family="Times,serif" font-size="14.00">TreatmentData</text>
</a>
</g>
</g>
<!-- TreatmentMedicationData&#45;&gt;TreatmentData -->
<g id="edge12" class="edge"><title>TreatmentMedicationData&#45;&gt;TreatmentData</title>
<path fill="none" stroke="black" d="M599.25,-403.559C571.969,-421.521 527.148,-449.24 485.363,-467 474.072,-471.799 461.669,-476.032 449.668,-479.638"/>
<polygon fill="black" stroke="black" points="448.348,-476.376 439.715,-482.518 450.294,-483.1 448.348,-476.376"/>
</g>
<!-- TreatmentData&#45;&gt;SourceStudy -->
<g id="edge23" class="edge"><title>TreatmentData&#45;&gt;SourceStudy</title>
<path fill="none" stroke="black" d="M332.933,-485.862C311.108,-482.685 286.033,-479.034 263.792,-475.795"/>
<polygon fill="black" stroke="black" points="264.194,-472.317 253.794,-474.34 263.186,-479.244 264.194,-472.317"/>
</g>
<!-- TreatmentData&#45;&gt;Person -->
<g id="edge24" class="edge"><title>TreatmentData&#45;&gt;Person</title>
<path fill="none" stroke="black" d="M332.933,-502.138C305.002,-506.204 271.747,-511.046 245.924,-514.806"/>
<polygon fill="black" stroke="black" points="245.098,-511.39 235.707,-516.294 246.106,-518.317 245.098,-511.39"/>
</g>
<!-- Susceptibility -->
<g id="node15" class="node"><title>Susceptibility</title>
<g id="a_node15"><a xlink:href="/#susceptibility" xlink:title="Susceptibility test results" target="_parent">
<ellipse fill="none" stroke="black" cx="626.004" cy="-263" rx="59.2899" ry="18"/>
<text text-anchor="middle" x="626.004" y="-259.3" font-family="Times,serif" font-size="14.00">Susceptibility</text>
</a>
</g>
</g>
<!-- Susceptibility&#45;&gt;SusceptibilityMethod -->
<g id="edge13" class="edge"><title>Susceptibility&#45;&gt;SusceptibilityMethod</title>
<path fill="none" stroke="black" d="M569.506,-257.549C542.529,-254.9 509.454,-251.651 479.126,-248.673"/>
<polygon fill="black" stroke="black" points="479.253,-245.168 468.959,-247.674 478.569,-252.135 479.253,-245.168"/>
</g>
<!-- Susceptibility&#45;&gt;Reference -->
<g id="edge16" class="edge"><title>Susceptibility&#45;&gt;Reference</title>
<path fill="none" stroke="black" d="M569.942,-268.883C504.02,-274.728 390.455,-280.982 294.28,-267 278.244,-264.669 261.101,-260.138 246.073,-255.444"/>
<polygon fill="black" stroke="black" points="247.128,-252.107 236.536,-252.358 244.973,-258.767 247.128,-252.107"/>
</g>
<!-- Susceptibility&#45;&gt;Isolate -->
<g id="edge15" class="edge"><title>Susceptibility&#45;&gt;Isolate</title>
<path fill="none" stroke="black" d="M589.259,-248.739C561.294,-237.94 521.263,-223.263 485.363,-213 401.439,-189.009 301.106,-169.413 245.595,-159.347"/>
<polygon fill="black" stroke="black" points="245.899,-155.845 235.437,-157.52 244.66,-162.735 245.899,-155.845"/>
</g>
<!-- Susceptibility&#45;&gt;Medication -->
<g id="edge14" class="edge"><title>Susceptibility&#45;&gt;Medication</title>
<path fill="none" stroke="black" d="M582.866,-275.416C542.636,-287.269 482.039,-305.123 439.706,-317.597"/>
<polygon fill="black" stroke="black" points="438.499,-314.303 429.896,-320.487 440.478,-321.018 438.499,-314.303"/>
</g>
<!-- TreatmentOutcome -->
<g id="node16" class="node"><title>TreatmentOutcome</title>
<g id="a_node16"><a xlink:href="/#treatmentoutcome" xlink:title="Outcome of a participant&#39;s treatment" target="_parent">
<ellipse fill="none" stroke="black" cx="626.004" cy="-494" rx="79.8859" ry="18"/>
<text text-anchor="middle" x="626.004" y="-490.3" font-family="Times,serif" font-size="14.00">TreatmentOutcome</text>
</a>
</g>
</g>
<!-- TreatmentOutcome&#45;&gt;TreatmentData -->
<g id="edge17" class="edge"><title>TreatmentOutcome&#45;&gt;TreatmentData</title>
<path fill="none" stroke="black" d="M546.047,-494C519.437,-494 489.878,-494 463.754,-494"/>
<polygon fill="black" stroke="black" points="463.548,-490.5 453.548,-494 463.548,-497.5 463.548,-490.5"/>
</g>
<!-- SequenceSubstitution -->
<g id="node17" class="node"><title>SequenceSubstitution</title>
<g id="a_node17"><a xlink:href="/#sequencesubstitution" xlink:title="Indicates that the attached sequence has the attached substitution" target="_parent">
<ellipse fill="none" stroke="black" cx="626.004" cy="-41" rx="87.1846" ry="18"/>
<text text-anchor="middle" x="626.004" y="-37.3" font-family="Times,serif" font-size="14.00">SequenceSubstitution</text>
</a>
</g>
</g>
<!-- SequenceSubstitution&#45;&gt;Sequence -->
<g id="edge18" class="edge"><title>SequenceSubstitution&#45;&gt;Sequence</title>
<path fill="none" stroke="black" d="M552.191,-50.6387C516.571,-55.3538 474.541,-60.9177 442.306,-65.1848"/>
<polygon fill="black" stroke="black" points="441.659,-61.7398 432.204,-66.5219 442.577,-68.6793 441.659,-61.7398"/>
</g>
<!-- Substitution -->
<g id="node18" class="node"><title>Substitution</title>
<g id="a_node18"><a xlink:href="/#substitution" xlink:title="A substitution, insertion, or deletion in an RNA sequence" target="_parent">
<ellipse fill="none" stroke="black" cx="389.822" cy="-18" rx="53.0913" ry="18"/>
<text text-anchor="middle" x="389.822" y="-14.3" font-family="Times,serif" font-size="14.00">Substitution</text>
</a>
</g>
</g>
<!-- SequenceSubstitution&#45;&gt;Substitution -->
<g id="edge19" class="edge"><title>SequenceSubstitution&#45;&gt;Substitution</title>
<path fill="none" stroke="black" d="M547.025,-33.3413C515.841,-30.2787 480.476,-26.8053 451.292,-23.939"/>
<polygon fill="black" stroke="black" points="451.538,-20.4465 441.244,-22.9522 450.854,-27.4129 451.538,-20.4465"/>
</g>
<!-- DeathAndLastFollowup -->
<g id="node19" class="node"><title>DeathAndLastFollowup</title>
<g id="a_node19"><a xlink:href="/#deathandlastfollowup" xlink:title="Records data about participants leaving the study" target="_parent">
<ellipse fill="none" stroke="black" cx="389.822" cy="-440" rx="95.5831" ry="18"/>
<text text-anchor="middle" x="389.822" y="-436.3" font-family="Times,serif" font-size="14.00">DeathAndLastFollowup</text>
</a>
</g>
</g>
<!-- DeathAndLastFollowup&#45;&gt;SourceStudy -->
<g id="edge21" class="edge"><title>DeathAndLastFollowup&#45;&gt;SourceStudy</title>
<path fill="none" stroke="black" d="M313.665,-450.943C297.111,-453.353 279.783,-455.876 263.895,-458.19"/>
<polygon fill="black" stroke="black" points="263.076,-454.772 253.685,-459.676 264.085,-461.699 263.076,-454.772"/>
</g>
<!-- DeathAndLastFollowup&#45;&gt;Person -->
<g id="edge22" class="edge"><title>DeathAndLastFollowup&#45;&gt;Person</title>
<path fill="none" stroke="black" d="M328.069,-453.789C316.56,-457.387 304.83,-461.762 294.28,-467 276.367,-475.894 275.328,-483.541 258.28,-494 251.932,-497.895 244.943,-501.682 238.14,-505.128"/>
<polygon fill="black" stroke="black" points="236.486,-502.041 229.056,-509.594 239.574,-508.322 236.486,-502.041"/>
</g>
<!-- ClinicalIsolate -->
<g id="node20" class="node"><title>ClinicalIsolate</title>
<g id="a_node20"><a xlink:href="/#clinicalisolate" xlink:title="Isolate information" target="_parent">
<ellipse fill="none" stroke="black" cx="389.822" cy="-386" rx="61.99" ry="18"/>
<text text-anchor="middle" x="389.822" y="-382.3" font-family="Times,serif" font-size="14.00">ClinicalIsolate</text>
</a>
</g>
</g>
<!-- ClinicalIsolate&#45;&gt;SourceStudy -->
<g id="edge25" class="edge"><title>ClinicalIsolate&#45;&gt;SourceStudy</title>
<path fill="none" stroke="black" d="M340.86,-397.12C325.675,-401.318 309.014,-406.646 294.28,-413 273.756,-421.851 252.19,-434.5 235.219,-445.331"/>
<polygon fill="black" stroke="black" points="233.275,-442.42 226.792,-450.799 237.086,-448.292 233.275,-442.42"/>
</g>
<!-- ClinicalIsolate&#45;&gt;Person -->
<g id="edge26" class="edge"><title>ClinicalIsolate&#45;&gt;Person</title>
<path fill="none" stroke="black" d="M333.287,-393.308C319.334,-397.31 305.233,-403.483 294.28,-413 264.543,-438.84 285.59,-465.607 258.28,-494 253.383,-499.092 247.325,-503.36 241.039,-506.889"/>
<polygon fill="black" stroke="black" points="239.142,-503.925 231.777,-511.541 242.284,-510.181 239.142,-503.925"/>
</g>
<!-- ClinicalIsolate&#45;&gt;Isolate -->
<g id="edge27" class="edge"><title>ClinicalIsolate&#45;&gt;Isolate</title>
<path fill="none" stroke="black" d="M331.615,-379.792C317.833,-375.777 304.233,-369.322 294.28,-359 247.891,-310.889 289.572,-272.054 258.28,-213 250.765,-198.818 239.234,-185.305 228.676,-174.618"/>
<polygon fill="black" stroke="black" points="230.837,-171.838 221.232,-167.367 225.953,-176.852 230.837,-171.838"/>
</g>
</g>
</svg>
